<?xml version="1.0" encoding="UTF-8"?>
<svg width="16px" height="16px" viewBox="0 0 16 16" version="1.1" xmlns="http://www.w3.org/2000/svg" xmlns:xlink="http://www.w3.org/1999/xlink">
    <title>切片</title>
    <g id="项目端-二期" stroke="none" stroke-width="1" fill="none" fill-rule="evenodd">
        <g id="资产管理-资产验收管理-退换货详情" transform="translate(-16.000000, -516.000000)" fill="#FFFFFF" fill-rule="nonzero">
            <g id="二级导航/分栏标题/不选中备份-2" transform="translate(0.000000, 504.000000)">
                <g id="图标" transform="translate(16.000000, 12.000000)">
                    <path d="M9.83333465,1 L14,4.97458251 L14,14.5 C14,14.7761424 13.7761424,15 13.5,15 L2.5,15 C2.22385763,15 2,14.7761424 2,14.5 L2,1.5 C2,1.22385763 2.22385763,1 2.5,1 L9.83333465,1 Z M9.134,2 L3,2 L3,14 L13,14 L13,5.807 L9.65722287,5.97997124 C9.57971593,5.98397664 9.50200619,5.97894551 9.42566276,5.96497945 C8.92119868,5.87269412 8.57489554,5.41689568 8.60757002,4.91728088 L8.6219382,4.80135286 L9.134,2 Z M10.4709904,7.64441625 L11.174013,8.35558375 L8.13925652,11.3555837 C7.96926022,11.5236331 7.70878039,11.5450749 7.51569547,11.4196217 L7.4375313,11.3568616 L5.64978609,9.60241897 L6.35021391,8.88869573 L7.786,10.298 L10.4709904,7.64441625 Z M10.044,2.583 L9.60561378,4.98130388 L12.406,4.836 L10.044,2.583 Z" id="形状结合"></path>
                </g>
            </g>
        </g>
    </g>
</svg>