<?xml version="1.0" encoding="UTF-8"?>
<svg width="16px" height="16px" viewBox="0 0 16 16" version="1.1" xmlns="http://www.w3.org/2000/svg" xmlns:xlink="http://www.w3.org/1999/xlink">
    <title>切片</title>
    <g id="5.17-巡检管理" stroke="none" stroke-width="1" fill="none" fill-rule="evenodd">
        <g id="物资管理-整改单据详情" transform="translate(-352.000000, -569.000000)" fill="#8C8C8C" fill-rule="nonzero">
            <g id="05-基础组件/上传/点击上传-进度条" transform="translate(352.000000, 567.000000)">
                <g id="04-图标库/06-基础图标/附件" transform="translate(0.000000, 2.000000)">
                    <g id="附件" transform="translate(1.500000, 2.000000)">
                        <path d="M12.1306576,1.25090271 C10.9715344,0.0813957412 9.08996604,0.0813957412 7.93084285,1.25090271 L7.42031491,1.76600412 L3.21889472,6.00344211 L2.76455696,6.46184996 C2.01160852,7.22154355 2.01160852,8.4509837 2.76455696,9.21067729 C3.5175054,9.97037087 4.73602964,9.97037087 5.48897808,9.21067729 L10.0291448,4.62983836 C10.0917567,4.56666554 10.0917567,4.46461715 10.0291448,4.40144434 L9.46082124,3.82802956 C9.39820932,3.76485675 9.297067,3.76485675 9.23445508,3.82802956 L4.69428836,8.40886849 C4.38122877,8.72473256 3.87230627,8.72473256 3.55924668,8.40886849 C3.24618709,8.09300442 3.24618709,7.57952283 3.55924668,7.26365876 L4.01358444,6.8052509 L8.2133992,2.56781291 L8.72392714,2.0527115 C9.4447669,1.32541423 10.6135227,1.32541423 11.3343625,2.0527115 C12.0552022,2.78000877 12.0552022,3.95923464 11.3343625,4.68653191 L11.1641865,4.85823238 L6.62562519,9.43907131 L6.05730164,10.0124861 C4.92868169,11.1512165 3.09848719,11.1512165 1.96986724,10.0124861 C0.841247299,8.87375561 0.841247299,7.02716566 1.96986724,5.88843519 L6.96597715,0.849188405 C7.02858907,0.786015591 7.02858907,0.683967199 6.96597715,0.620794385 L6.3976536,0.0473796106 C6.33504168,-0.0157932035 6.23389935,-0.0157932035 6.17128743,0.0473796106 L1.17517752,5.0866264 C-0.391725841,6.66756656 -0.391725841,9.23173489 1.17517752,10.8142949 C2.74208089,12.395235 5.28348256,12.395235 6.85199136,10.8142949 L7.42031491,10.2408801 L11.9604816,5.66004117 L12.1306576,5.4883407 C13.2897808,4.31721392 13.2897808,2.42040968 12.1306576,1.25090271 Z" id="路径"></path>
                    </g>
                </g>
            </g>
        </g>
    </g>
</svg>