<?xml version="1.0" encoding="UTF-8"?>
<svg width="16px" height="16px" viewBox="0 0 16 16" version="1.1" xmlns="http://www.w3.org/2000/svg" xmlns:xlink="http://www.w3.org/1999/xlink">
    <title>切片</title>
    <g id="Web端-UI公共控件规范" stroke="none" stroke-width="1" fill="none" fill-rule="evenodd">
        <g id="12公共页面" transform="translate(-116.000000, -890.000000)" fill="#FFFFFF" fill-rule="nonzero">
            <g id="编组-2" transform="translate(100.000000, 326.000000)">
                <g id="二级导航/分栏标题/不选中备份-2" transform="translate(0.000000, 552.000000)">
                    <g id="图标" transform="translate(16.000000, 12.000000)">
                        <g id="编组" transform="translate(1.000000, 1.000000)">
                            <path d="M13.5,0 C13.7761424,0 14,0.223857625 14,0.5 L14,13.5 C14,13.7761424 13.7761424,14 13.5,14 L3.5,14 C3.22385763,14 3,13.7761424 3,13.5 L3,0.5 C3,0.223857625 3.22385763,0 3.5,0 L13.5,0 Z M13,1 L4,1 L4,13 L13,13 L13,1 Z M2,11 L2,12 L0,12 L0,11 L2,11 Z M9.70710678,4 L10.4142136,4.66144363 L9.207,5.79 L10.5,5.79059853 L10.5,6.72602108 L8.999,6.726 L8.999,7.661 L10.5,7.66144363 L10.5,8.59686618 L9,8.596 L9,10 L8,10 L7.999,8.596 L6.5,8.59686618 L6.5,7.66144363 L7.999,7.661 L7.999,6.726 L6.5,6.72602108 L6.5,5.79059853 L7.793,5.79 L6.58578644,4.66144363 L7.29289322,4 L8.5,5.129 L9.70710678,4 Z M2,8 L2,9 L0,9 L0,8 L2,8 Z M2,5 L2,6 L0,6 L0,5 L2,5 Z M2,2 L2,3 L0,3 L0,2 L2,2 Z" id="形状结合"></path>
                        </g>
                    </g>
                </g>
            </g>
        </g>
    </g>
</svg>