<?xml version="1.0" encoding="UTF-8"?>
<svg width="16px" height="16px" viewBox="0 0 16 16" version="1.1" xmlns="http://www.w3.org/2000/svg" xmlns:xlink="http://www.w3.org/1999/xlink">
    <title>切片</title>
    <g id="业务中心-物资管理" stroke="none" stroke-width="1" fill="none" fill-rule="evenodd">
        <g id="物资管理-需用计划管理-（新增）物资需用总计划配置" transform="translate(-1035.000000, -860.000000)">
            <g id="02-典型页面/底部操作栏" transform="translate(208.000000, 836.000000)">
                <g id="编组-2" transform="translate(827.000000, 16.000000)">
                    <g id="编组-15" transform="translate(0.000000, 5.000000)">
                        <g id="Icon/Fill/Check-Circle-Fill" transform="translate(0.000000, 3.000000)">
                            <rect id="矩形" fill="#000000" fill-rule="nonzero" opacity="0" x="0" y="0" width="16" height="16"></rect>
                            <path d="M8,1 C4.134375,1 1,4.134375 1,8 C1,11.865625 4.134375,15 8,15 C11.865625,15 15,11.865625 15,8 C15,4.134375 11.865625,1 8,1 Z M11.0234375,5.7140625 L7.7328125,10.2765625 C7.534375,10.553125 7.1234375,10.553125 6.925,10.2765625 L4.9765625,7.5765625 C4.9171875,7.49375 4.9765625,7.378125 5.078125,7.378125 L5.8109375,7.378125 C5.9703125,7.378125 6.121875,7.4546875 6.215625,7.5859375 L7.328125,9.1296875 L9.784375,5.7234375 C9.878125,5.59375 10.028125,5.515625 10.1890625,5.515625 L10.921875,5.515625 C11.0234375,5.515625 11.0828125,5.63125 11.0234375,5.7140625 Z" id="形状" fill="#00CC33"></path>
                        </g>
                    </g>
                </g>
            </g>
        </g>
    </g>
</svg>