<?xml version="1.0" encoding="UTF-8"?>
<svg width="32px" height="32px" viewBox="0 0 32 32" version="1.1" xmlns="http://www.w3.org/2000/svg" xmlns:xlink="http://www.w3.org/1999/xlink">
    <title>切片</title>
    <g id="业务中心-物资管理" stroke="none" stroke-width="1" fill="none" fill-rule="evenodd">
        <g id="物资管理-需用计划管理-（新增）钢筋需用总计划模板配置-第二步" transform="translate(-420.000000, -218.000000)">
            <g id="Group-7" transform="translate(420.000000, 218.000000)">
                <path d="M16,0.5 C20.2802068,0.5 24.1552068,2.23489659 26.9601551,5.03984489 C29.7651034,7.84479319 31.5,11.7197932 31.5,16 C31.5,20.2802068 29.7651034,24.1552068 26.9601551,26.9601551 C24.1552068,29.7651034 20.2802068,31.5 16,31.5 C11.7197932,31.5 7.84479319,29.7651034 5.03984489,26.9601551 C2.23489659,24.1552068 0.5,20.2802068 0.5,16 C0.5,11.7197932 2.23489659,7.84479319 5.03984489,5.03984489 C7.84479319,2.23489659 11.7197932,0.5 16,0.5 Z" id="Oval-1-Copy-21" stroke="#1791FF"></path>
                <g id="Group" transform="translate(8.000000, 8.000000)">
                    <rect id="Rectangle" x="0" y="0" width="16" height="16"></rect>
                    <path d="M14.7598679,2.67372295 C15.0676886,2.95088593 15.0925415,3.42510886 14.8153786,3.73292953 L5.87069996,13.6670015 C5.76844566,13.7805664 5.63936936,13.8556164 5.50172256,13.8911948 C5.23254234,13.971435 4.92922343,13.8967818 4.7288735,13.6742707 L4.7288735,13.6742707 L1.19573191,9.75031944 C0.918568943,9.44249878 0.943421914,8.96827584 1.25124258,8.69111287 C1.55906324,8.4139499 2.03328618,8.43880287 2.31044915,8.74662353 L2.31044915,8.74662353 L5.29608414,12.0620752 L13.7006613,2.72923362 C13.9778243,2.42141295 14.4520472,2.39655998 14.7598679,2.67372295 Z" id="Combined-Shape" fill="#1791FF"></path>
                </g>
            </g>
        </g>
    </g>
</svg>