<?xml version="1.0" standalone="no"?><!DOCTYPE svg PUBLIC "-//W3C//DTD SVG 1.1//EN" "http://www.w3.org/Graphics/SVG/1.1/DTD/svg11.dtd"><svg t="1654131775715" class="icon" viewBox="0 0 1024 1024" version="1.1" xmlns="http://www.w3.org/2000/svg" p-id="2733" xmlns:xlink="http://www.w3.org/1999/xlink" width="200" height="200"><defs><style type="text/css">@font-face { font-family: feedback-iconfont; src: url("//at.alicdn.com/t/font_1031158_u69w8yhxdu.woff2?t=1630033759944") format("woff2"), url("//at.alicdn.com/t/font_1031158_u69w8yhxdu.woff?t=1630033759944") format("woff"), url("//at.alicdn.com/t/font_1031158_u69w8yhxdu.ttf?t=1630033759944") format("truetype"); }
</style></defs><path d="M736 192a32 32 0 0 1 32 32v704a32 32 0 0 1-32 32h-576a32 32 0 0 1-32-32v-704a32 32 0 0 1 32-32h576zM704 256H192v640h512V256z m128-192a64 64 0 0 1 63.552 56.512L896 128v608h-64V128H224V64H832zM444.16 512c2.112 0 3.84 3.584 3.84 8v48C448 572.416 446.272 576 444.16 576H259.84C257.728 576 256 572.416 256 568v-48C256 515.584 257.728 512 259.84 512z m188.16-128c4.224 0 7.68 3.584 7.68 8v48A7.872 7.872 0 0 1 632.32 448H263.68A7.872 7.872 0 0 1 256 440v-48C256 387.584 259.456 384 263.68 384z" p-id="2734"></path></svg>