<?xml version="1.0" encoding="UTF-8"?>
<svg width="16px" height="16px" viewBox="0 0 16 16" version="1.1" xmlns="http://www.w3.org/2000/svg" xmlns:xlink="http://www.w3.org/1999/xlink">
    <title>切片</title>
    <g id="Web端-UI公共控件规范" stroke="none" stroke-width="1" fill="none" fill-rule="evenodd">
        <g id="09表格" transform="translate(-1273.000000, -906.000000)" fill="#595959">
            <g id="编组-11" transform="translate(93.000000, 898.000000)">
                <g id="04-图标库/06-基础图标/设置" transform="translate(1180.000000, 8.000000)">
                    <rect id="矩形" x="2" y="13" width="12" height="1"></rect>
                    <rect id="矩形备份" x="2" y="2" width="12" height="1"></rect>
                    <rect id="矩形备份-2" x="7.5" y="5" width="1" height="6"></rect>
                    <path d="M8.07071068,4.07071068 L9.82928932,5.82928932 C9.86834175,5.86834175 9.86834175,5.93165825 9.82928932,5.97071068 C9.81053568,5.98946432 9.78510029,6 9.75857864,6 L6.24142136,6 C6.18619288,6 6.14142136,5.95522847 6.14142136,5.9 C6.14142136,5.87347835 6.15195704,5.84804296 6.17071068,5.82928932 L7.92928932,4.07071068 C7.96834175,4.03165825 8.03165825,4.03165825 8.07071068,4.07071068 Z" id="三角形"></path>
                    <path d="M8.07071068,10.0707107 L9.82928932,11.8292893 C9.86834175,11.8683418 9.86834175,11.9316582 9.82928932,11.9707107 C9.81053568,11.9894643 9.78510029,12 9.75857864,12 L6.24142136,12 C6.18619288,12 6.14142136,11.9552285 6.14142136,11.9 C6.14142136,11.8734784 6.15195704,11.848043 6.17071068,11.8292893 L7.92928932,10.0707107 C7.96834175,10.0316582 8.03165825,10.0316582 8.07071068,10.0707107 Z" id="三角形备份" transform="translate(8.000000, 11.000000) scale(1, -1) translate(-8.000000, -11.000000) "></path>
                </g>
            </g>
        </g>
    </g>
</svg>