<?xml version="1.0" encoding="UTF-8"?>
<svg width="16px" height="16px" viewBox="0 0 16 16" version="1.1" xmlns="http://www.w3.org/2000/svg" xmlns:xlink="http://www.w3.org/1999/xlink">
    <title>切片</title>
    <g id="供应商pc端" stroke="none" stroke-width="1" fill-rule="evenodd">
        <g id="供应商-首页" transform="translate(-16.000000, -100.000000)" fill-rule="nonzero">
            <g id="二级导航/分栏标题/选中" transform="translate(8.000000, 92.000000)">
                <g id="编组-24" transform="translate(8.000000, 5.000000)">
                    <g id="图标" transform="translate(0.000000, 3.000000)">
                        <path d="M3,15 C2.72385763,15 2.5,14.7761424 2.5,14.5 L2.5,14.5 L2.499,8.921 L1.03547607,8.9215547 C0.619023857,8.9215547 0.397225721,8.45105595 0.626817562,8.13259632 L0.626817562,8.13259632 L0.683018407,8.06690897 L7.64754234,1.14535427 C7.8418929,0.952202792 8.15549704,0.951456195 8.35076507,1.14368011 L8.35076507,1.14368011 L15.3819317,8.06523481 C15.7007302,8.37906345 15.4785154,8.9215547 15.0311666,8.9215547 L15.0311666,8.9215547 L13.499,8.921 L13.5,14.5 C13.5,14.7454599 13.3231248,14.9496084 13.0898756,14.9919443 L13.0898756,14.9919443 L13,15 Z M8.001,2.203 L2.247,7.921 L3,7.9215547 C3.24545989,7.9215547 3.44960837,8.09842986 3.49194433,8.33167907 L3.49194433,8.33167907 L3.5,8.4215547 L3.499,14 L5.999473,14 L6,9 L10,9 L9.999473,14 L12.499,14 L12.5,8.4215547 C12.5,8.17609481 12.6768752,7.97194633 12.9101244,7.92961037 L12.9101244,7.92961037 L13,7.9215547 L13.81,7.921 L8.001,2.203 Z M9,10 L7,10 L7,14 L9,14 L9,10 Z" id="形状结合"></path>
                    </g>
                </g>
            </g>
        </g>
    </g>
</svg>