<?xml version="1.0" encoding="UTF-8"?>
<svg width="411px" height="32px" viewBox="0 0 411 32" version="1.1" xmlns="http://www.w3.org/2000/svg" xmlns:xlink="http://www.w3.org/1999/xlink">
    <title>04-图标库/logo南方</title>
    <g id="04-图标库/logo南方" stroke="none" stroke-width="1" fill="none" fill-rule="evenodd">
        <g id="编组-3">
            <path d="M48.2062764,13.520024 L50.9244252,13.520024 L50.9244252,12.079624 L54.8396651,12.079624 L54.8396651,18.960792 L57.7181065,18.960792 L57.7181065,12.079624 L61.7151914,12.079624 L61.7151914,13.281096 L64.6720805,13.281096 L64.6720805,4.160816 L57.7181065,4.160816 L57.7181065,2.16064 C57.7181065,1.573552 57.7965543,1.068392 57.9568469,0.641728 C58.0114102,0.532504 58.0386919,0.454 58.0386919,0.399384 C58.0386919,0.348184 57.8511176,0.293576 57.4793742,0.23896 C57.2645182,0.23896 56.3573255,0.23896 54.7612174,0.23896 L54.7612174,4.160816 L48.2062764,4.160816 L48.2062764,13.520024 L48.2062764,13.520024 Z M50.9244252,6.399928 L54.8396651,6.399928 L54.8396651,9.919016 L50.9244252,9.919016 L50.9244252,6.399928 Z M61.7151914,9.919016 L57.7181065,9.919016 L57.7181065,6.399928 L61.7151914,6.399928 L61.7151914,9.919016 Z M69.6438867,18.878872 L72.2017428,18.878872 L72.2017428,17.841232 L83.7121274,17.841232 L83.7121274,18.721856 L86.3484312,18.721856 L86.3484312,0.720232 L69.6438867,0.720232 L69.6438867,18.878872 Z M83.7121274,2.88084 L83.7121274,15.759136 L72.2017428,15.759136 L72.2017428,2.88084 L83.7121274,2.88084 Z M73.2419385,7.840328 L73.2419385,9.840512 L76.519413,9.840512 L76.519413,12.478976 L72.7610605,12.478976 L72.7610605,14.561072 L83.1528017,14.561072 L83.1528017,12.478976 L81.6351412,12.478976 L82.8322164,11.680272 C82.726495,11.519848 82.3547516,10.905456 81.713581,9.840512 L82.6719237,9.840512 L82.6719237,7.840328 L79.0772771,7.840328 L79.0772771,6.07908 L82.992509,6.07908 L82.992509,4.078896 L72.9213532,4.078896 L72.9213532,6.07908 L76.519413,6.07908 L76.519413,7.840328 L73.2419385,7.840328 Z M79.4763022,10.639216 C79.9026168,11.226304 80.3016419,11.840696 80.6733853,12.478976 L79.0772771,12.478976 L79.0772771,9.840512 L80.6733853,9.840512 L79.4763022,10.639216 Z M97.4761453,3.51912 L100.272742,3.51912 L100.272742,4.32124 L96.5962423,4.32124 L96.5962423,6.239504 L100.272742,6.239504 L100.272742,7.120128 L97.3977056,7.120128 L97.3977056,8.959888 L100.272742,8.959888 L100.272742,9.680088 L97.2374129,9.680088 L97.2374129,11.60176 L100.272742,11.60176 L100.272742,12.318552 L96.756535,12.318552 L96.756535,14.318728 L100.272742,14.318728 L100.272742,16.079984 C98.250327,16.079984 96.6780952,15.65332 95.5594598,14.8 C96.2517885,13.093368 96.5689607,10.533408 96.5178026,7.120128 L94.5192562,7.120128 C95.1570216,5.734336 95.8766319,3.86728 96.6780952,1.518944 L90.9212044,1.518944 L90.9212044,3.679544 L93.3187678,3.679544 C93.1073171,4.799104 92.8140214,5.628528 92.442278,6.161 C92.1216927,6.693472 91.6408147,6.987008 91.0030493,7.041624 L91.0030493,9.198816 L93.9599385,9.198816 C93.9599385,10.052136 93.9599385,10.666528 93.9599385,11.038576 C93.9053752,11.519848 93.8542171,11.946504 93.7996458,12.318552 C93.5847899,12.106928 93.2676097,11.308224 92.8413031,9.919016 C91.6680964,10.239864 90.948486,10.400288 90.682464,10.400288 C91.2145,12.00112 91.8795471,13.49272 92.6810104,14.878512 C92.2546957,15.731832 91.4532324,16.50664 90.2834389,17.199536 C91.081497,17.680808 91.7738177,18.240584 92.3604251,18.878872 C92.8924611,18.3464 93.4517788,17.732008 94.0383782,17.039112 C94.2532421,16.878688 94.3862531,16.77288 94.4374112,16.72168 C95.7163393,17.892432 98.1411924,18.47952 101.711971,18.47952 L108.26692,18.47952 C108.427212,17.465776 108.775079,16.561256 109.307115,15.759136 C107.496143,15.974168 105.31003,16.079984 102.752166,16.079984 L102.752166,14.318728 L107.468861,14.318728 L107.468861,12.318552 L102.752166,12.318552 L102.752166,11.60176 L106.909544,11.60176 L106.909544,9.680088 L102.752166,9.680088 L102.752166,8.959888 L106.909544,8.959888 L106.909544,6.239504 L108.665945,6.239504 L108.665945,4.23932 L106.909544,4.23932 L106.909544,1.600864 L102.752166,1.600864 C102.752166,1.2254 102.80673,0.907968 102.912459,0.641728 C102.912459,0.532504 102.912459,0.454 102.912459,0.399384 C102.857888,0.293576 102.697595,0.23896 102.431581,0.23896 C102.271288,0.23896 101.551678,0.23896 100.272742,0.23896 L100.272742,1.600864 L97.4761453,1.600864 L97.4761453,3.51912 Z M102.752166,4.32124 L102.752166,3.51912 L104.35168,3.51912 L104.35168,4.32124 L102.752166,4.32124 Z M102.752166,6.239504 L104.430119,6.239504 L104.430119,7.120128 L102.752166,7.120128 L102.752166,6.239504 Z M116.915217,2.399568 C117.235803,1.921712 117.529106,1.518944 117.79512,1.201504 C117.900842,1.09228 117.955413,1.013776 117.955413,0.959168 C117.955413,0.853352 117.876973,0.774848 117.71668,0.720232 C116.809488,0.454 115.929585,0.23896 115.076963,0.081952 C114.012891,2.481488 112.894256,4.37244 111.721049,5.761648 C112.041635,5.973272 112.44066,6.2122 112.918132,6.481848 C113.293281,6.693472 113.559303,6.853896 113.719596,6.959704 C114.892802,5.413488 115.45212,4.614784 115.397549,4.560168 L116.035314,4.560168 C116.3559,5.30768 116.598037,6.2122 116.754925,7.280552 C117.396095,7.120128 118.30328,6.9324 119.473081,6.720776 C119.261631,5.973272 118.941045,5.253064 118.514731,4.560168 L121.232887,4.560168 L121.232887,2.399568 L116.915217,2.399568 L116.915217,2.399568 Z M112.519107,17.039112 C113.958328,16.50664 115.956866,15.78644 118.514731,14.878512 C119.101338,14.666888 119.394634,14.561072 119.394634,14.561072 L118.995609,12.6394 L116.99707,13.199176 L116.99707,9.919016 L119.234341,9.919016 L119.234341,7.840328 L112.519107,7.840328 L112.519107,9.919016 L114.677938,9.919016 L114.677938,13.758952 C114.251632,13.919376 113.613866,14.0798 112.761245,14.240224 C112.225804,14.34604 111.85406,14.42796 111.639196,14.479152 L112.519107,17.039112 L112.519107,17.039112 Z M119.872106,11.120488 C119.872106,12.987552 119.633374,14.29484 119.155901,15.038936 C118.780753,15.78644 117.767839,16.612456 116.117159,17.520384 C116.598037,17.732008 117.208521,18.185976 117.955413,18.878872 C118.115706,19.039296 118.221427,19.145104 118.275998,19.19972 C120.032399,17.865128 121.151034,16.745568 121.631912,15.841056 C122.11279,14.878512 122.324241,13.44152 122.273083,11.519848 C122.644826,13.281096 122.883559,14.506464 122.992693,15.19936 C123.204144,15.14816 123.497448,15.093544 123.869191,15.038936 C124.404632,14.93312 124.803666,14.854616 125.06968,14.8 L125.06968,17.039112 C125.015116,17.680808 125.175409,18.08016 125.550558,18.240584 C126.028022,18.401008 126.560058,18.47952 127.146666,18.47952 L128.507447,18.47952 C129.411226,18.534128 129.997825,18.3464 130.263848,17.919736 C130.584433,17.49308 130.799289,16.585144 130.905018,15.19936 C130.212689,15.038936 129.653372,14.878512 129.227057,14.721496 C128.906472,14.666888 128.667739,14.612272 128.507447,14.561072 C128.507447,15.14816 128.425594,15.65332 128.265301,16.079984 C128.214143,16.240408 128.108422,16.318912 127.948129,16.318912 C127.733265,16.318912 127.627544,16.213104 127.627544,16.00148 L127.627544,7.51948 L119.872106,7.51948 L119.872106,11.120488 L119.872106,11.120488 Z M124.987827,13.3596 C124.936669,13.147976 124.882105,12.854432 124.830947,12.478976 C124.616083,11.680272 124.455791,11.06588 124.350069,10.639216 L122.273083,11.038576 L122.273083,9.601584 L125.06968,9.601584 L125.06968,13.3596 L124.987827,13.3596 Z M124.987827,2.399568 C125.308412,1.921712 125.601716,1.467744 125.86773,1.04108 C125.922301,0.935272 125.895019,0.853352 125.78929,0.798744 C125.574434,0.692928 124.697936,0.454 123.149581,0.081952 C122.457252,2.481488 121.498901,4.50556 120.274545,6.161 C121.39318,6.533048 122.19123,6.826584 122.672108,7.041624 C122.992693,6.454544 123.309874,5.812848 123.630459,5.119952 C123.790751,4.908328 123.896473,4.720592 123.951044,4.560168 L124.510362,4.560168 C124.936669,5.468104 125.202691,6.29412 125.308412,7.041624 C126.693069,6.720776 127.600262,6.533048 128.026569,6.481848 C127.866276,5.89476 127.521814,5.253064 126.986373,4.560168 L130.103555,4.560168 L130.103555,2.399568 L124.987827,2.399568 L124.987827,2.399568 Z M138.912145,1.839792 C138.966716,1.733976 139.072438,1.573552 139.232731,1.361928 C139.498745,1.09228 139.631756,0.907968 139.631756,0.798744 C139.84662,0.747544 138.860987,0.481304 136.674866,3.19999999e-05 C135.771087,2.293752 134.676328,4.133512 133.397392,5.519304 C134.089721,5.785536 134.809331,6.133696 135.556231,6.560352 L135.556231,8.079264 L141.712155,8.079264 L141.712155,9.198816 L136.037109,9.198816 C135.927974,10.854256 135.794963,12.478976 135.638084,14.0798 L139.314583,14.0798 C138.035647,15.093544 136.088267,16.00148 133.479245,16.800184 C134.222732,17.438464 134.809331,18.08016 135.235646,18.721856 C138.008366,17.387264 140.167205,16.134592 141.712155,14.960424 L141.712155,18.960792 L144.270011,18.960792 L144.270011,14.0798 L148.185251,14.0798 L148.185251,14.878512 C148.185251,15.253968 148.05224,15.465592 147.786218,15.520208 C147.574775,15.626016 146.879033,15.65332 145.70924,15.598712 C146.026412,16.452032 146.268557,17.281456 146.42885,18.08016 C148.290972,18.08016 149.464179,17.919736 149.945057,17.598888 C150.477093,17.281456 150.743107,16.585144 150.743107,15.520208 L150.743107,12.079624 L144.270011,12.079624 L144.270011,11.120488 L150.023497,11.120488 L150.023497,6.07908 L147.30534,6.07908 C148.693411,5.546608 149.385739,5.253064 149.385739,5.201864 C149.331168,4.986832 149.065154,4.532864 148.584276,3.839968 L151.783311,3.839968 L151.783311,1.839792 L146.988168,1.839792 C147.039326,1.733976 147.14846,1.600864 147.30534,1.44044 C147.465633,1.2254 147.547486,1.068392 147.547486,0.959168 C146.906315,0.641728 145.947972,0.348184 144.669044,0.081952 C144.614473,0.133152 144.536033,0.348184 144.430304,0.720232 C143.843704,2.481488 143.069523,4.000392 142.11118,5.280376 C142.858072,5.546608 143.495837,5.812848 144.027873,6.07908 L139.072438,6.07908 C139.873901,5.867456 140.56623,5.679728 141.152829,5.519304 C140.937973,4.932216 140.671951,4.37244 140.351366,3.839968 L142.748937,3.839968 L142.748937,1.839792 L138.912145,1.839792 L138.912145,1.839792 Z M135.955256,6.07908 C136.541863,5.386184 137.073891,4.63868 137.554769,3.839968 L137.953802,3.839968 C138.219816,4.481664 138.43468,5.22576 138.594973,6.07908 L135.955256,6.07908 Z M144.430304,6.07908 C144.802047,5.601224 145.228362,4.853712 145.70924,3.839968 L146.186705,3.839968 C146.452727,4.481664 146.694864,5.22576 146.906315,6.07908 L144.430304,6.07908 L144.430304,6.07908 Z M144.270011,8.079264 L147.387193,8.079264 L147.387193,9.198816 L144.270011,9.198816 L144.270011,8.079264 Z M138.19594,12.079624 L138.274388,11.120488 L141.712155,11.120488 L141.712155,12.079624 L138.19594,12.079624 Z M171.382667,18.08016 C171.863545,17.438464 172.661595,16.63976 173.780239,15.680632 C169.571703,12.694008 167.412864,8.212376 167.307143,2.239144 C167.307143,2.02752 167.331011,1.81248 167.385582,1.600864 C167.440146,1.44044 167.467435,1.334624 167.467435,1.280016 C167.518593,1.1742 166.798975,1.09228 165.308596,1.04108 C164.988011,1.04108 164.749279,1.04108 164.588986,1.04108 C164.694707,1.733976 164.855,2.693112 165.066451,3.921888 C165.387036,6.587656 165.762193,8.478616 166.188499,9.601584 C167.252571,12.854432 168.985096,15.680632 171.382667,18.08016 L171.382667,18.08016 Z M154.835002,16.561256 C155.636466,16.827488 156.516377,17.254152 157.474719,17.841232 C160.032583,14.479152 161.9254,9.867816 163.149765,4.000392 C163.149765,3.945784 163.204329,3.812664 163.310058,3.60104 C163.415779,3.386008 163.470351,3.252888 163.470351,3.201688 C162.82918,2.986648 161.816266,2.74772 160.431608,2.481488 C159.95073,8.45472 158.088608,13.147976 154.835002,16.561256 Z M176.992231,14.561072 L176.992231,16.960608 L194.979117,16.960608 L194.979117,14.561072 L187.305524,14.561072 L187.305524,4.63868 L193.618328,4.63868 L193.618328,2.16064 L178.271159,2.16064 L178.271159,4.63868 L184.427083,4.63868 L184.427083,14.561072 L176.992231,14.561072 L176.992231,14.561072 Z M203.627414,3.119768 C204.534599,3.01396 205.46566,2.908144 206.424011,2.79892 C206.052267,1.788592 205.653242,0.959168 205.226928,0.32088 C203.681978,0.853352 201.335572,1.2254 198.191101,1.44044 C198.191101,1.44044 198.272954,1.652056 198.433246,2.07872 C198.750427,2.775024 198.992564,3.307496 199.152857,3.679544 C199.950915,3.573736 200.697807,3.46792 201.390136,3.358696 L201.390136,5.601224 L198.511686,5.601224 L198.511686,7.679904 L200.588672,7.679904 L200.588672,7.761824 C199.845185,9.840512 199.043722,11.574456 198.191101,12.960248 C198.777708,13.598528 199.337026,14.34604 199.869062,15.19936 C200.455661,14.134416 200.936539,13.066056 201.308283,12.00112 L201.308283,18.800368 L203.627414,18.800368 L203.627414,10.79964 C203.681978,10.905456 203.787707,11.038576 203.948,11.199 C204.319743,11.840696 204.640328,12.400472 204.906342,12.881744 C205.653242,12.45508 206.291,12.079624 206.826449,11.758776 C206.771878,11.65296 206.666156,11.465232 206.505864,11.199 C206.400134,11.038576 206.318282,10.905456 206.263718,10.79964 L209.783338,10.79964 L209.783338,12.400472 L206.826449,12.400472 L206.826449,14.400648 L209.783338,14.400648 L209.783338,16.240408 L205.226928,16.240408 L205.226928,18.319096 L216.897605,18.319096 L216.897605,16.240408 L212.419634,16.240408 L212.419634,14.400648 L215.618669,14.400648 L215.618669,12.400472 L212.419634,12.400472 L212.419634,10.79964 L216.495167,10.79964 L216.495167,8.72096 L206.024986,8.72096 L206.024986,10.400288 C205.864693,10.07944 205.520231,9.601584 204.984782,8.959888 C204.933632,8.905272 204.906342,8.881384 204.906342,8.881384 C204.800621,8.932576 204.374306,9.147616 203.627414,9.519664 L203.627414,7.679904 L206.263718,7.679904 L206.263718,5.601224 L203.627414,5.601224 L203.627414,3.119768 L203.627414,3.119768 Z M215.618669,1.119592 L206.826449,1.119592 L206.826449,7.679904 L215.618669,7.679904 L215.618669,1.119592 Z M212.97896,3.201688 L212.97896,5.601224 L209.30246,5.601224 L209.30246,3.201688 L212.97896,3.201688 Z M221.947843,10.321784 C221.893272,13.093368 221.149793,15.387088 219.710564,17.199536 C220.457464,17.575 221.228232,18.107472 222.029696,18.800368 C223.680367,16.561256 224.532989,13.547328 224.587552,9.758592 L234.819,9.758592 L234.819,14.8 C234.92473,16.079984 234.41657,16.612456 233.297927,16.400832 L233.297927,10.721136 L225.46405,10.721136 L225.46405,16.960608 L227.861621,16.960608 L227.861621,16.318912 L230.900363,16.318912 L230.900363,16.878688 L232.977341,16.878688 C233.246769,17.414576 233.430938,18.107472 233.540072,18.960792 C235.296473,18.906176 236.415109,18.639944 236.895987,18.158672 C237.428023,17.732008 237.694045,16.800184 237.694045,15.359784 L237.694045,7.679904 L224.587552,7.679904 L224.587552,6.638856 L236.496961,6.638856 L236.496961,0.959168 L221.947843,0.959168 L221.947843,10.321784 L221.947843,10.321784 Z M233.778805,3.119768 L233.778805,4.560168 L224.587552,4.560168 L224.587552,3.119768 L233.778805,3.119768 Z M227.861621,12.72132 L230.821916,12.72132 L230.821916,14.479152 L227.861621,14.479152 L227.861621,12.72132 Z M241.78594,2.399568 L241.78594,4.63868 L247.061953,4.63868 C245.837588,7.041624 243.944771,8.987192 241.386907,10.478792 C241.707492,10.79964 242.133807,11.226304 242.665843,11.758776 C243.092149,12.134232 243.385453,12.400472 243.545746,12.560896 C244.55866,11.813384 245.438563,11.01468 246.185455,10.16136 L246.185455,18.639944 L248.743319,18.639944 L248.743319,14.721496 L254.496805,14.721496 L254.496805,15.598712 C254.496805,15.974168 254.363794,16.185792 254.09778,16.240408 C253.882916,16.346216 253.27244,16.346216 252.259526,16.240408 C252.259526,16.295016 252.286815,16.400832 252.337974,16.561256 C252.658559,17.35996 252.924573,18.158672 253.139437,18.960792 C254.844672,18.906176 255.990597,18.694552 256.573791,18.319096 C257.109232,18.052856 257.347972,17.49308 257.293401,16.63976 L257.293401,6.000576 L249.302637,6.000576 C249.619817,5.573912 249.940402,5.119952 250.260987,4.63868 L259.933118,4.63868 L259.933118,2.399568 L251.301183,2.399568 C251.512634,2.07872 251.700208,1.761288 251.860501,1.44044 C251.911659,1.385824 251.96623,1.30732 252.017388,1.201504 C252.392537,0.774848 252.204963,0.508608 251.458063,0.399384 C250.448562,0.23896 249.541377,0.160456 248.743319,0.160456 C248.634184,0.959168 248.422734,1.706672 248.102148,2.399568 L241.78594,2.399568 L241.78594,2.399568 Z M248.743319,9.44116 L248.743319,8.161176 L254.496805,8.161176 L254.496805,9.44116 L248.743319,9.44116 Z M254.496805,11.359424 L254.496805,12.72132 L248.743319,12.72132 L248.743319,11.359424 L254.496805,11.359424 Z M263.946566,18.47952 L266.262284,18.47952 L266.262284,13.281096 C266.743162,13.919376 267.036466,14.561072 267.142187,15.19936 C268.475687,14.93312 269.328308,14.561072 269.700051,14.0798 C270.126366,13.653144 270.341222,12.827128 270.341222,11.60176 C270.39238,10.427592 269.966073,8.987192 269.062294,7.280552 C269.805781,4.986832 270.259369,2.853536 270.419662,0.880656 L263.946566,0.880656 L263.946566,18.47952 L263.946566,18.47952 Z M270.90054,14.561072 C270.90054,15.253968 270.579954,15.841056 269.938784,16.318912 C269.887634,16.373528 269.860344,16.400832 269.860344,16.400832 C270.498109,17.575 270.978987,18.401008 271.299573,18.878872 C271.350731,18.878872 271.511023,18.773056 271.777037,18.561432 C273.055966,17.708112 274.334902,17.011808 275.61383,16.479336 C275.187523,15.626016 274.894219,14.878512 274.73734,14.240224 L273.376551,15.038936 L273.376551,9.758592 L274.096169,9.758592 C274.256462,13.547328 276.200437,16.479336 279.9315,18.561432 C280.412378,17.598888 281.104706,16.77288 282.008486,16.079984 C280.303243,15.547512 278.945875,14.639576 277.932961,13.3596 C278.519561,12.987552 279.266461,12.560896 280.170232,12.079624 C280.862561,11.707576 281.210436,11.492536 281.210436,11.441336 C281.210436,11.332112 280.623829,10.772336 279.450622,9.758592 L280.00994,9.758592 L280.00994,0.959168 L270.90054,0.959168 L270.90054,14.561072 Z M266.262284,2.959344 L267.701513,2.959344 C267.54122,4.45436 267.169477,5.973272 266.582869,7.51948 C268.393842,10.88156 268.288112,12.533584 266.262284,12.478976 L266.262284,2.959344 Z M273.458404,3.041264 L277.295196,3.041264 L277.295196,4.32124 L273.458404,4.32124 L273.458404,3.041264 Z M273.458404,6.161 L277.295196,6.161 L277.295196,7.679904 L273.458404,7.679904 L273.458404,6.161 Z M278.891304,9.758592 C278.413839,10.34568 277.772669,10.905456 276.974611,11.441336 C276.759755,11.06588 276.599462,10.560712 276.493733,9.919016 C276.493733,9.973632 276.493733,9.919016 276.493733,9.758592 L278.891304,9.758592 L278.891304,9.758592 Z M301.29067,11.680272 C301.982999,10.611912 302.702609,9.680088 303.449509,8.881384 C299.663867,6.321424 297.532318,3.573736 297.054853,0.641728 C296.25339,0.692928 295.34961,0.907968 294.336696,1.280016 C294.442418,1.44044 294.575429,1.81248 294.735721,2.399568 C296.065808,6.505736 298.251928,9.601584 301.29067,11.680272 Z M284.34398,9.840512 C285.356894,10.427592 286.182234,11.038576 286.823405,11.680272 C288.579798,9.44116 290.578344,6.505736 292.815623,2.88084 C292.975915,2.720416 292.948634,2.587296 292.737183,2.481488 C292.150576,2.321064 291.11038,2.02752 289.620001,1.600864 C289.193686,4.266632 287.43388,7.01432 284.34398,9.840512 L284.34398,9.840512 Z M294.653868,12.400472 C295.400768,13.147976 296.065808,13.946688 296.652415,14.8 C294.094551,15.01504 292.36544,15.093544 291.458247,15.038936 C292.631454,12.854432 293.91039,10.693832 295.295039,8.560536 C295.34961,8.45472 295.322329,8.345496 295.213194,8.239688 C293.507951,7.761824 292.498443,7.492176 292.177857,7.440976 C290.793208,12.240048 289.220968,14.878512 287.461162,15.359784 C287.355441,15.414392 287.300869,15.441696 287.300869,15.441696 C287.781747,16.987912 288.075051,17.841232 288.180772,18.001656 C288.235344,18.001656 288.341065,17.974352 288.501358,17.919736 C290.684065,17.438464 293.722807,17.066416 297.614171,16.800184 C298.091636,17.49308 298.384939,18.134776 298.490661,18.721856 L301.450963,17.44188 C300.489207,15.626016 298.998828,13.465416 296.973,10.960064 L294.653868,12.400472 Z M320.647889,3.761464 L320.647889,15.359784 C320.808182,16.213104 320.064695,16.612456 318.410611,16.561256 C318.625466,17.199536 318.785759,17.947048 318.891489,18.800368 C318.891489,18.745752 318.891489,18.800368 318.891489,18.960792 C320.968475,18.960792 322.220121,18.773056 322.646428,18.401008 C323.233035,18.08016 323.499049,17.254152 323.447891,15.91956 L323.447891,1.361928 L308.339455,1.361928 L308.339455,3.761464 L320.647889,3.761464 Z M319.689539,5.201864 L307.381112,5.201864 L307.381112,7.359056 L319.689539,7.359056 L319.689539,5.201864 Z M315.852746,10.88156 L315.852746,13.120672 L311.456637,13.120672 L311.456637,10.88156 L315.852746,10.88156 Z M315.852746,16.400832 L318.570903,16.400832 L318.570903,8.72096 L308.898772,8.72096 L308.898772,16.72168 L311.456637,16.72168 L311.456637,15.19936 L315.852746,15.19936 L315.852746,16.400832 Z M328.099104,4.481664 L335.694249,4.481664 L335.533956,5.918656 L329.616772,5.918656 L329.616772,18.561432 L332.014344,18.561432 L332.014344,8.000752 L335.213371,8.000752 L333.535417,8.72096 C333.801431,9.041808 334.094735,9.546968 334.41532,10.239864 L332.815807,10.239864 L332.815807,12.161544 L335.694249,12.161544 L335.694249,13.281096 L332.733954,13.281096 L332.733954,15.19936 L335.694249,15.19936 L335.694249,17.759312 L338.17026,17.759312 L338.17026,15.19936 L341.447734,15.19936 L341.447734,13.281096 L338.17026,13.281096 L338.17026,12.161544 L341.287442,12.161544 L341.287442,10.321784 L339.531049,10.321784 C339.797063,9.94632 340.141525,9.57428 340.567831,9.198816 C340.728124,9.041808 340.809977,8.932576 340.809977,8.881384 C340.861135,8.772152 340.407539,8.478616 339.449196,8.000752 L342.088905,8.000752 L342.088905,15.281272 C342.194634,15.974168 341.76832,16.295016 340.809977,16.240408 L340.008513,16.240408 C340.43482,17.093728 340.700842,17.947048 340.809977,18.800368 C342.620941,18.745752 343.712295,18.561432 344.087451,18.240584 C344.564916,17.974352 344.803648,17.332656 344.803648,16.318912 L344.803648,5.918656 L338.009967,5.918656 L338.17026,4.481664 L346.242877,4.481664 L346.242877,2.399568 L338.409,2.399568 C338.518135,1.761288 338.569293,1.280016 338.569293,0.959168 C338.729585,0.58712 338.756867,0.37208 338.651138,0.32088 C338.651138,0.266272 337.825806,0.215072 336.171721,0.160456 L335.932989,2.399568 L328.099104,2.399568 L328.099104,4.481664 L328.099104,4.481664 Z M335.373663,10.321784 L336.812892,9.680088 C336.86405,9.680088 336.652599,9.253432 336.171721,8.400112 C336.065992,8.188488 335.987552,8.051952 335.932989,8.000752 L338.252113,8.000752 C338.037257,8.799464 337.692795,9.57428 337.211917,10.321784 L335.373663,10.321784 L335.373663,10.321784 Z M356.650981,0.798744 C357.183017,1.867096 357.503602,2.693112 357.609332,3.280192 L350.017592,3.280192 L350.017592,5.679728 L355.771078,5.679728 C355.880212,11.120488 354.014677,14.878512 350.177885,16.960608 C351.081664,17.49308 351.883128,18.107472 352.575456,18.800368 C355.559627,16.72168 357.425163,13.868176 358.168649,10.239864 L362.087294,10.239864 C362.032723,11.680272 361.927002,13.093368 361.766709,14.479152 C361.66098,15.172048 361.394966,15.598712 360.968659,15.759136 C360.593502,15.91956 359.795452,15.974168 358.571088,15.91956 C359.103124,16.987912 359.396419,17.919736 359.447577,18.721856 C361.739427,18.667248 363.100208,18.401008 363.526515,17.919736 C364.164281,17.49308 364.539429,16.318912 364.645159,14.400648 C364.805451,12.318552 364.938454,10.185256 365.044184,8.000752 L358.489235,8.000752 L358.649527,5.679728 L367.680487,5.679728 L367.680487,3.280192 L358.970113,3.280192 L360.569626,2.79892 C360.515063,2.481488 360.300199,1.600864 359.928455,0.160456 L356.650981,0.798744 L356.650981,0.798744 Z M387.682282,11.680272 C388.374611,10.611912 389.094221,9.680088 389.841121,8.881384 C386.055479,6.321424 383.92393,3.573736 383.446465,0.641728 C382.645002,0.692928 381.741222,0.907968 380.728308,1.280016 C380.83403,1.44044 380.967041,1.81248 381.127333,2.399568 C382.457419,6.505736 384.64354,9.601584 387.682282,11.680272 Z M370.735592,9.840512 C371.748506,10.427592 372.573846,11.038576 373.215017,11.680272 C374.971409,9.44116 376.969956,6.505736 379.207235,2.88084 C379.367527,2.720416 379.340246,2.587296 379.128795,2.481488 C378.542188,2.321064 377.501992,2.02752 376.011613,1.600864 C375.585298,4.266632 373.825492,7.01432 370.735592,9.840512 L370.735592,9.840512 Z M381.04548,12.400472 C381.79238,13.147976 382.457419,13.946688 383.044027,14.8 C380.486163,15.01504 378.757051,15.093544 377.849859,15.038936 C379.023065,12.854432 380.302002,10.693832 381.686651,8.560536 C381.741222,8.45472 381.713941,8.345496 381.604806,8.239688 C379.899563,7.761824 378.890054,7.492176 378.569469,7.440976 C377.18482,12.240048 375.61258,14.878512 373.852774,15.359784 C373.747053,15.414392 373.692481,15.441696 373.692481,15.441696 C374.173359,16.987912 374.466663,17.841232 374.572384,18.001656 C374.626956,18.001656 374.732677,17.974352 374.89297,17.919736 C377.075677,17.438464 380.114419,17.066416 384.005783,16.800184 C384.483247,17.49308 384.776551,18.134776 384.882273,18.721856 L387.842575,17.44188 C386.880819,15.626016 385.39044,13.465416 383.364612,10.960064 L381.04548,12.400472 Z M407.039501,3.761464 L407.039501,15.359784 C407.199794,16.213104 406.456307,16.612456 404.802222,16.561256 C405.017078,17.199536 405.177371,17.947048 405.2831,18.800368 C405.2831,18.745752 405.2831,18.800368 405.2831,18.960792 C407.360086,18.960792 408.611733,18.773056 409.03804,18.401008 C409.624647,18.08016 409.890661,17.254152 409.839503,15.91956 L409.839503,1.361928 L394.731067,1.361928 L394.731067,3.761464 L407.039501,3.761464 Z M406.08115,5.201864 L393.772724,5.201864 L393.772724,7.359056 L406.08115,7.359056 L406.08115,5.201864 Z M402.244358,10.88156 L402.244358,13.120672 L397.848248,13.120672 L397.848248,10.88156 L402.244358,10.88156 Z M402.244358,16.400832 L404.962515,16.400832 L404.962515,8.72096 L395.290384,8.72096 L395.290384,16.72168 L397.848248,16.72168 L397.848248,15.19936 L402.244358,15.19936 L402.244358,16.400832 Z" id="形状" fill="#00A2E9" fill-rule="nonzero"></path>
            <path d="M53.0246883,27.74468 C52.9446818,26.338176 52.1712835,25.623488 50.7032224,25.600624 C49.2338904,25.6678 48.4706518,26.751264 48.4109727,28.851016 C48.4503404,30.905024 49.214842,31.955616 50.7032224,31.999928 C52.1915949,31.977056 52.9649932,31.28524 53.0246883,29.923048 L51.7737852,29.923048 C51.7547368,30.68204 51.3978773,31.072264 50.7032224,31.095128 C50.0479274,31.050824 49.7012355,30.301832 49.6605968,28.851016 C49.7012355,27.375904 50.0479274,26.616904 50.7032224,26.572592 C51.3775659,26.595464 51.7344175,26.98568 51.7737852,27.74468 L53.0246883,27.74468 Z M55.2724545,31.932744 L55.2724545,29.219792 L57.385651,29.219792 L57.385651,31.932744 L58.5463799,31.932744 L58.5463799,25.734984 L57.3564429,25.734984 L57.3564429,28.18064 L55.2724545,28.18064 L55.2724545,25.734984 L54.1117176,25.734984 L54.1117176,31.932744 L55.2724545,31.932744 Z M61.0938525,25.734984 L59.9026446,25.734984 L59.9026446,31.932744 L61.0938525,31.932744 L61.0938525,25.734984 Z M67.3902213,31.932744 L67.3902213,25.734984 L66.2879006,25.734984 L66.2879006,30.591992 L66.2586925,30.626296 L64.1747121,25.734984 L62.4183752,25.734984 L62.4183752,31.932744 L63.520688,31.932744 L63.520688,26.807008 L63.5498961,26.774136 L65.6935716,31.932744 L67.3902213,31.932744 Z M69.4297102,31.932744 L69.8462649,30.626296 L72.0191405,30.626296 L72.4356792,31.932744 L73.6268871,31.932744 L71.6914969,25.734984 L70.2932826,25.734984 L68.2981974,31.932744 L69.4297102,31.932744 L69.4297102,31.932744 Z M70.1434294,29.587144 L70.9473067,26.941376 L70.9777777,26.941376 L71.721976,29.587144 L70.1434294,29.587144 Z M80.6314277,27.74468 C80.5514292,26.338176 79.7780309,25.623488 78.3099618,25.600624 C76.8406378,25.6678 76.0773992,26.751264 76.0177121,28.851016 C76.0570798,30.905024 76.8215894,31.955616 78.3099618,31.999928 C79.7983423,31.977056 80.5717406,31.28524 80.6314277,29.923048 L79.3805326,29.923048 C79.3614842,30.68204 79.0046246,31.072264 78.3099618,31.095128 C77.6546668,31.050824 77.3079749,30.301832 77.2673442,28.851016 C77.3079749,27.375904 77.6546668,26.616904 78.3099618,26.572592 C78.9843133,26.595464 79.3411569,26.98568 79.3805326,27.74468 L80.6314277,27.74468 Z M84.159305,31.999928 C85.8457951,31.955616 86.7182482,30.905024 86.7779353,28.851016 C86.7182482,26.728392 85.8457951,25.64636 84.159305,25.600624 C82.4524955,25.64636 81.5698827,26.728392 81.5101956,28.851016 C81.5495634,30.905024 82.4321762,31.955616 84.159305,31.999928 L84.159305,31.999928 Z M84.159305,26.572592 C85.0723968,26.572592 85.5283032,27.331592 85.5283032,28.851016 C85.5283032,30.347568 85.0723968,31.095128 84.159305,31.095128 C83.2258938,31.095128 82.7598197,30.347568 82.7598197,28.851016 C82.7598197,27.331592 83.2258938,26.572592 84.159305,26.572592 Z M92.9561929,31.932744 L92.9561929,25.734984 L91.8538801,25.734984 L91.8538801,30.591992 L91.8246721,30.626296 L89.7406837,25.734984 L87.9843468,25.734984 L87.9843468,31.932744 L89.0866596,31.932744 L89.0866596,26.807008 L89.1158756,26.774136 L91.2595511,31.932744 L92.9561929,31.932744 L92.9561929,31.932744 Z M98.3585103,27.510264 C98.3000942,26.303872 97.6740152,25.6678 96.4840782,25.600624 C95.0160091,25.690672 94.2515076,26.371056 94.1918125,27.644624 C94.1918125,28.4708 94.7975881,29.04112 96.0078444,29.352728 C96.0472122,29.375592 96.1170589,29.398464 96.2161138,29.419904 C96.9107686,29.577136 97.2574685,29.867296 97.2574685,30.291824 C97.2384201,30.804968 96.8714088,31.072264 96.1564267,31.095128 C95.5417703,31.050824 95.2331752,30.670608 95.2331752,29.95592 L94.0432382,29.95592 C94.0229109,31.318112 94.7277333,31.999928 96.1564267,31.999928 C97.7044942,31.955616 98.4880522,31.28524 98.5083635,29.990224 C98.5274119,29.141176 97.8924442,28.570856 96.6034524,28.280696 C96.523438,28.259256 96.4739105,28.247816 96.4535992,28.247816 C95.73988,28.136328 95.4020768,27.846168 95.4427155,27.375904 C95.4617639,26.885624 95.7602073,26.616904 96.335488,26.572592 C96.9107686,26.572592 97.2079491,26.885624 97.2282604,27.510264 L98.3585103,27.510264 L98.3585103,27.510264 Z M99.2969654,26.774136 L100.933928,26.774136 L100.933928,31.932744 L102.125144,31.932744 L102.125144,26.774136 L103.762107,26.774136 L103.762107,25.734984 L99.2969654,25.734984 L99.2969654,26.774136 Z M105.861291,26.774136 L106.844229,26.774136 C107.399191,26.751264 107.677315,27.008552 107.677315,27.544568 C107.677315,28.124896 107.399191,28.415056 106.844229,28.415056 L105.861291,28.415056 L105.861291,26.774136 Z M105.861291,29.454208 L107.110923,29.454208 C107.409358,29.454208 107.57826,29.721504 107.617628,30.25752 C107.637939,30.837848 107.706523,31.396728 107.825897,31.932744 L109.106008,31.932744 C108.966314,31.686888 108.86726,31.195184 108.807565,30.459064 C108.807565,30.41332 108.798676,30.347568 108.778364,30.25752 C108.738989,29.36416 108.411337,28.90676 107.796689,28.883888 L107.796689,28.851016 C108.530719,28.649472 108.90789,28.14776 108.926939,27.343024 C108.90789,26.293864 108.272915,25.757848 107.02202,25.734984 L104.671346,25.734984 L104.671346,31.932744 L105.861291,31.932744 L105.861291,29.454208 L105.861291,29.454208 Z M113.823822,25.734984 L113.823822,29.118304 C113.844134,29.855864 113.764135,30.357576 113.586337,30.626296 C113.407276,30.939328 113.089792,31.095128 112.633877,31.095128 C112.1767,31.095128 111.850319,30.939328 111.650947,30.626296 C111.473148,30.357576 111.393142,29.855864 111.413461,29.118304 L111.413461,25.734984 L110.222253,25.734984 L110.222253,29.621448 C110.262884,31.162312 111.065498,31.955616 112.633877,31.999928 C114.161625,31.955616 114.955343,31.162312 115.01503,29.621448 L115.01503,25.734984 L113.823822,25.734984 Z M120.835165,27.74468 C120.755159,26.338176 119.981761,25.623488 118.513699,25.600624 C117.044375,25.6678 116.281129,26.751264 116.22145,28.851016 C116.260817,30.905024 117.025319,31.955616 118.513699,31.999928 C120.00208,31.977056 120.775478,31.28524 120.835165,29.923048 L119.584262,29.923048 C119.565214,30.68204 119.208354,31.072264 118.513699,31.095128 C117.858404,31.050824 117.511712,30.301832 117.471074,28.851016 C117.511712,27.375904 117.858404,26.616904 118.513699,26.572592 C119.188043,26.595464 119.544894,26.98568 119.584262,27.74468 L120.835165,27.74468 Z M121.475177,26.774136 L123.11214,26.774136 L123.11214,31.932744 L124.303355,31.932744 L124.303355,26.774136 L125.940318,26.774136 L125.940318,25.734984 L121.475177,25.734984 L121.475177,26.774136 Z M128.069981,25.734984 L126.878773,25.734984 L126.878773,31.932744 L128.069981,31.932744 L128.069981,25.734984 Z M131.865815,31.999928 C133.552305,31.955616 134.424758,30.905024 134.484445,28.851016 C134.424758,26.728392 133.552305,25.64636 131.865815,25.600624 C130.159013,25.64636 129.276393,26.728392 129.216706,28.851016 C129.256073,30.905024 130.138686,31.955616 131.865815,31.999928 Z M131.865815,26.572592 C132.778907,26.572592 133.234813,27.331592 133.234813,28.851016 C133.234813,30.347568 132.778907,31.095128 131.865815,31.095128 C130.932404,31.095128 130.46633,30.347568 130.46633,28.851016 C130.46633,27.331592 130.932404,26.572592 131.865815,26.572592 Z M140.662703,31.932744 L140.662703,25.734984 L139.56039,25.734984 L139.56039,30.591992 L139.531182,30.626296 L137.447194,25.734984 L135.690857,25.734984 L135.690857,31.932744 L136.793177,31.932744 L136.793177,26.807008 L136.822386,26.774136 L138.966061,31.932744 L140.662703,31.932744 L140.662703,31.932744 Z M143.61936,31.932744 L147.398727,31.932744 L147.398727,30.893592 L144.809305,30.893592 L144.809305,29.252672 L147.130771,29.252672 L147.130771,28.213512 L144.809305,28.213512 L144.809305,26.774136 L147.309824,26.774136 L147.309824,25.734984 L143.61936,25.734984 L143.61936,31.932744 L143.61936,31.932744 Z M149.856042,25.734984 L148.664826,25.734984 L148.664826,31.932744 L149.856042,31.932744 L149.856042,25.734984 Z M154.872292,29.65432 L154.872292,30.960768 C154.812605,30.98364 154.792293,30.98364 154.812605,30.960768 C154.415114,31.050824 154.068422,31.095128 153.77125,31.095128 C152.759103,31.072264 152.242231,30.324696 152.223182,28.851016 C152.242231,27.354464 152.759103,26.595464 153.77125,26.572592 C154.50528,26.572592 154.872292,26.918504 154.872292,27.611752 L156.121924,27.611752 C156.142243,26.271 155.288838,25.600624 153.56171,25.600624 C151.875219,25.734984 151.012926,26.818448 150.972287,28.851016 C151.012926,30.837848 151.875219,31.888432 153.56171,31.999928 C154.078574,31.999928 154.495121,31.977056 154.812605,31.932744 C155.229151,31.932744 155.635538,31.86556 156.033029,31.7312 L156.033029,28.6166 L153.800458,28.6166 L153.800458,29.65432 L154.872292,29.65432 L154.872292,29.65432 Z M158.668125,31.932744 L158.668125,29.219792 L160.781322,29.219792 L160.781322,31.932744 L161.942059,31.932744 L161.942059,25.734984 L160.752114,25.734984 L160.752114,28.18064 L158.668125,28.18064 L158.668125,25.734984 L157.507397,25.734984 L157.507397,31.932744 L158.668125,31.932744 Z M162.910985,26.774136 L164.547948,26.774136 L164.547948,31.932744 L165.739164,31.932744 L165.739164,26.774136 L167.376126,26.774136 L167.376126,25.734984 L162.910985,25.734984 L162.910985,26.774136 Z M169.534997,31.932744 L169.534997,29.219792 L171.648186,29.219792 L171.648186,31.932744 L172.808923,31.932744 L172.808923,25.734984 L171.618986,25.734984 L171.618986,28.18064 L169.534997,28.18064 L169.534997,25.734984 L168.37426,25.734984 L168.37426,31.932744 L169.534997,31.932744 Z M175.825819,31.932744 L179.605186,31.932744 L179.605186,30.893592 L177.015764,30.893592 L177.015764,29.252672 L179.337229,29.252672 L179.337229,28.213512 L177.015764,28.213512 L177.015764,26.774136 L179.516291,26.774136 L179.516291,25.734984 L175.825819,25.734984 L175.825819,31.932744 L175.825819,31.932744 Z M185.872339,31.932744 L185.872339,25.734984 L184.770026,25.734984 L184.770026,30.591992 L184.74081,30.626296 L182.656829,25.734984 L180.900493,25.734984 L180.900493,31.932744 L182.002805,31.932744 L182.002805,26.807008 L182.032021,26.774136 L184.175697,31.932744 L185.872339,31.932744 L185.872339,31.932744 Z M190.888596,29.65432 L190.888596,30.960768 C190.828909,30.98364 190.80859,30.98364 190.828909,30.960768 C190.431411,31.050824 190.084719,31.095128 189.787555,31.095128 C188.7754,31.072264 188.258535,30.324696 188.239487,28.851016 C188.258535,27.354464 188.7754,26.595464 189.787555,26.572592 C190.521585,26.572592 190.888596,26.918504 190.888596,27.611752 L192.138228,27.611752 C192.158548,26.271 191.305135,25.600624 189.578014,25.600624 C187.891524,25.734984 187.029231,26.818448 186.988584,28.851016 C187.029231,30.837848 187.891524,31.888432 189.578014,31.999928 C190.094879,31.999928 190.511417,31.977056 190.828909,31.932744 C191.245456,31.932744 191.651835,31.86556 192.049325,31.7312 L192.049325,28.6166 L189.816763,28.6166 L189.816763,29.65432 L190.888596,29.65432 L190.888596,29.65432 Z M194.655222,25.734984 L193.464014,25.734984 L193.464014,31.932744 L194.655222,31.932744 L194.655222,25.734984 Z M200.951583,31.932744 L200.951583,25.734984 L199.84927,25.734984 L199.84927,30.591992 L199.820062,30.626296 L197.736074,25.734984 L195.979737,25.734984 L195.979737,31.932744 L197.082058,31.932744 L197.082058,26.807008 L197.111266,26.774136 L199.254941,31.932744 L200.951583,31.932744 L200.951583,31.932744 Z M202.217681,31.932744 L205.997049,31.932744 L205.997049,30.893592 L203.407626,30.893592 L203.407626,29.252672 L205.729092,29.252672 L205.729092,28.213512 L203.407626,28.213512 L203.407626,26.774136 L205.908154,26.774136 L205.908154,25.734984 L202.217681,25.734984 L202.217681,31.932744 L202.217681,31.932744 Z M207.233939,31.932744 L211.013306,31.932744 L211.013306,30.893592 L208.423884,30.893592 L208.423884,29.252672 L210.74535,29.252672 L210.74535,28.213512 L208.423884,28.213512 L208.423884,26.774136 L210.924411,26.774136 L210.924411,25.734984 L207.233939,25.734984 L207.233939,31.932744 L207.233939,31.932744 Z M213.440142,26.774136 L214.423081,26.774136 C214.978042,26.751264 215.256166,27.008552 215.256166,27.544568 C215.256166,28.124896 214.978042,28.415056 214.423081,28.415056 L213.440142,28.415056 L213.440142,26.774136 Z M213.440142,29.454208 L214.689774,29.454208 C214.988209,29.454208 215.157111,29.721504 215.196479,30.25752 C215.21679,30.837848 215.285374,31.396728 215.404748,31.932744 L216.684859,31.932744 C216.545158,31.686888 216.446111,31.195184 216.386416,30.459064 C216.386416,30.41332 216.377527,30.347568 216.357216,30.25752 C216.31784,29.36416 215.990188,28.90676 215.37554,28.883888 L215.37554,28.851016 C216.109571,28.649472 216.486742,28.14776 216.50579,27.343024 C216.486742,26.293864 215.851766,25.757848 214.600871,25.734984 L212.250197,25.734984 L212.250197,31.932744 L213.440142,31.932744 L213.440142,29.454208 L213.440142,29.454208 Z M218.903417,25.734984 L217.712201,25.734984 L217.712201,31.932744 L218.903417,31.932744 L218.903417,25.734984 Z M225.199778,31.932744 L225.199778,25.734984 L224.097465,25.734984 L224.097465,30.591992 L224.068249,30.626296 L221.984269,25.734984 L220.227932,25.734984 L220.227932,31.932744 L221.330245,31.932744 L221.330245,26.807008 L221.359461,26.774136 L223.503128,31.932744 L225.199778,31.932744 L225.199778,31.932744 Z M230.216036,29.65432 L230.216036,30.960768 C230.156341,30.98364 230.13603,30.98364 230.156341,30.960768 C229.758851,31.050824 229.412159,31.095128 229.114994,31.095128 C228.10284,31.072264 227.585975,30.324696 227.566927,28.851016 C227.585975,27.354464 228.10284,26.595464 229.114994,26.572592 C229.849025,26.572592 230.216036,26.918504 230.216036,27.611752 L231.46566,27.611752 C231.485987,26.271 230.632575,25.600624 228.905454,25.600624 C227.218964,25.734984 226.356662,26.818448 226.316024,28.851016 C226.356662,30.837848 227.218964,31.888432 228.905454,31.999928 C229.422318,31.999928 229.838857,31.977056 230.156341,31.932744 C230.572896,31.932744 230.979275,31.86556 231.376765,31.7312 L231.376765,28.6166 L229.144202,28.6166 L229.144202,29.65432 L230.216036,29.65432 L230.216036,29.65432 Z M235.67322,26.774136 L236.298029,26.774136 C237.388911,26.728392 237.92484,27.42164 237.904512,28.851016 C237.92484,30.25752 237.388911,30.939328 236.298029,30.893592 L235.67322,30.893592 L235.67322,26.774136 Z M234.511213,31.932744 L236.386924,31.932744 C238.213107,31.909872 239.135096,30.883584 239.155415,28.851016 C239.135096,26.795576 238.213107,25.757848 236.386924,25.734984 L234.511213,25.734984 L234.511213,31.932744 L234.511213,31.932744 Z M241.523827,25.734984 L240.332619,25.734984 L240.332619,31.932744 L241.523827,31.932744 L241.523827,25.734984 Z M244.456104,31.932744 L245.736207,31.932744 L247.7605,25.734984 L246.599763,25.734984 L245.171078,30.626296 L245.140599,30.626296 L243.711906,25.734984 L242.431803,25.734984 L244.456104,31.932744 Z M249.860955,25.734984 L248.669747,25.734984 L248.669747,31.932744 L249.860955,31.932744 L249.860955,25.734984 Z M255.263273,27.510264 C255.204856,26.303872 254.578777,25.6678 253.388841,25.600624 C251.920771,25.690672 251.15627,26.371056 251.096575,27.644624 C251.096575,28.4708 251.702342,29.04112 252.912607,29.352728 C252.951974,29.375592 253.021821,29.398464 253.120876,29.419904 C253.815531,29.577136 254.162231,29.867296 254.162231,30.291824 C254.143182,30.804968 253.776171,31.072264 253.061189,31.095128 C252.446533,31.050824 252.137937,30.670608 252.137937,29.95592 L250.948001,29.95592 C250.927673,31.318112 251.632496,31.999928 253.061189,31.999928 C254.609257,31.955616 255.392814,31.28524 255.413126,29.990224 C255.432174,29.141176 254.797207,28.570856 253.508207,28.280696 C253.4282,28.259256 253.378673,28.247816 253.358361,28.247816 C252.644642,28.136328 252.306839,27.846168 252.347478,27.375904 C252.366526,26.885624 252.664962,26.616904 253.24025,26.572592 C253.815531,26.572592 254.112711,26.885624 254.133023,27.510264 L255.263273,27.510264 L255.263273,27.510264 Z M257.780274,25.734984 L256.589066,25.734984 L256.589066,31.932744 L257.780274,31.932744 L257.780274,25.734984 Z M261.576108,31.999928 C263.262598,31.955616 264.135059,30.905024 264.194738,28.851016 C264.135059,26.728392 263.262598,25.64636 261.576108,25.600624 C259.869307,25.64636 258.986686,26.728392 258.926999,28.851016 C258.966366,30.905024 259.848979,31.955616 261.576108,31.999928 Z M261.576108,26.572592 C262.4892,26.572592 262.945114,27.331592 262.945114,28.851016 C262.945114,30.347568 262.4892,31.095128 261.576108,31.095128 C260.642705,31.095128 260.176631,30.347568 260.176631,28.851016 C260.176631,27.331592 260.642705,26.572592 261.576108,26.572592 Z M270.373004,31.932744 L270.373004,25.734984 L269.270683,25.734984 L269.270683,30.591992 L269.241475,30.626296 L267.157495,25.734984 L265.40115,25.734984 L265.40115,31.932744 L266.503471,31.932744 L266.503471,26.807008 L266.532679,26.774136 L268.676354,31.932744 L270.373004,31.932744 L270.373004,31.932744 Z M277.764316,27.74468 C277.684309,26.338176 276.910911,25.623488 275.44285,25.600624 C273.973518,25.6678 273.210279,26.751264 273.150592,28.851016 C273.189968,30.905024 273.954469,31.955616 275.44285,31.999928 C276.931222,31.977056 277.70462,31.28524 277.764316,29.923048 L276.513413,29.923048 C276.494364,30.68204 276.137505,31.072264 275.44285,31.095128 C274.787555,31.050824 274.440863,30.301832 274.400224,28.851016 C274.440863,27.375904 274.787555,26.616904 275.44285,26.572592 C276.117193,26.595464 276.474045,26.98568 276.513413,27.74468 L277.764316,27.74468 Z M281.292185,31.999928 C282.978675,31.955616 283.851136,30.905024 283.910815,28.851016 C283.851136,26.728392 282.978675,25.64636 281.292185,25.600624 C279.585383,25.64636 278.702763,26.728392 278.643076,28.851016 C278.682443,30.905024 279.565064,31.955616 281.292185,31.999928 Z M281.292185,26.572592 C282.205277,26.572592 282.661191,27.331592 282.661191,28.851016 C282.661191,30.347568 282.205277,31.095128 281.292185,31.095128 C280.358782,31.095128 279.892708,30.347568 279.892708,28.851016 C279.892708,27.331592 280.358782,26.572592 281.292185,26.572592 Z M286.248756,26.774136 L287.231702,26.774136 C287.786663,26.751264 288.06478,27.008552 288.06478,27.544568 C288.06478,28.124896 287.786663,28.415056 287.231702,28.415056 L286.248756,28.415056 L286.248756,26.774136 Z M286.248756,29.454208 L287.498388,29.454208 C287.796823,29.454208 287.965725,29.721504 288.005092,30.25752 C288.025412,30.837848 288.093996,31.396728 288.21337,31.932744 L289.493473,31.932744 C289.353779,31.686888 289.254724,31.195184 289.195037,30.459064 C289.195037,30.41332 289.186141,30.347568 289.165829,30.25752 C289.126462,29.36416 288.79881,28.90676 288.184154,28.883888 L288.184154,28.851016 C288.918192,28.649472 289.295363,28.14776 289.314412,27.343024 C289.295363,26.293864 288.660387,25.757848 287.409492,25.734984 L285.058811,25.734984 L285.058811,31.932744 L286.248756,31.932744 L286.248756,29.454208 L286.248756,29.454208 Z M291.712031,31.932744 L291.712031,29.554264 L292.574324,29.554264 C293.804908,29.487088 294.439884,28.851016 294.479244,27.644624 C294.499563,26.349608 293.755381,25.712112 292.246681,25.734984 L290.550031,25.734984 L290.550031,31.932744 L291.712031,31.932744 L291.712031,31.932744 Z M291.712031,26.774136 C291.790774,26.774136 291.910149,26.774136 292.068891,26.774136 C292.8626,26.684088 293.248668,26.974248 293.22962,27.644624 C293.248668,28.315 292.8626,28.60516 292.068891,28.515112 C291.910149,28.515112 291.790774,28.515112 291.712031,28.515112 L291.712031,26.774136 Z M298.299473,31.932744 L298.299473,30.793536 L297.316527,30.793536 L297.316527,31.932744 L298.299473,31.932744 Z M305.006282,31.932744 L305.006282,30.893592 L302.625129,30.893592 L302.625129,25.734984 L301.464392,25.734984 L301.464392,31.932744 L305.006282,31.932744 Z M305.617085,26.774136 L307.254048,26.774136 L307.254048,31.932744 L308.445256,31.932744 L308.445256,26.774136 L310.082219,26.774136 L310.082219,25.734984 L305.617085,25.734984 L305.617085,26.774136 Z M312.211882,26.774136 L312.836698,26.774136 C313.92758,26.728392 314.463501,27.42164 314.443181,28.851016 C314.463501,30.25752 313.92758,30.939328 312.836698,30.893592 L312.211882,30.893592 L312.211882,26.774136 Z M311.049882,31.932744 L312.925593,31.932744 C314.751777,31.909872 315.673765,30.883584 315.694084,28.851016 C315.673765,26.795576 314.751777,25.757848 312.925593,25.734984 L311.049882,25.734984 L311.049882,31.932744 L311.049882,31.932744 Z M319.63368,31.932744 L319.63368,30.793536 L318.650734,30.793536 L318.650734,31.932744 L319.63368,31.932744 Z M326.845923,27.510264 C326.787507,26.303872 326.161428,25.6678 324.971483,25.600624 C323.503422,25.690672 322.73892,26.371056 322.679225,27.644624 C322.679225,28.4708 323.284993,29.04112 324.495257,29.352728 C324.534625,29.375592 324.604471,29.398464 324.703526,29.419904 C325.398181,29.577136 325.744881,29.867296 325.744881,30.291824 C325.725833,30.804968 325.358821,31.072264 324.643831,31.095128 C324.029183,31.050824 323.720588,30.670608 323.720588,29.95592 L322.530651,29.95592 C322.510323,31.318112 323.215146,31.999928 324.643831,31.999928 C326.191899,31.955616 326.975465,31.28524 326.995776,29.990224 C327.014824,29.141176 326.379857,28.570856 325.090857,28.280696 C325.01085,28.259256 324.961323,28.247816 324.941012,28.247816 C324.227292,28.136328 323.889489,27.846168 323.930128,27.375904 C323.949176,26.885624 324.247612,26.616904 324.8229,26.572592 C325.398181,26.572592 325.695354,26.885624 325.715673,27.510264 L326.845923,27.510264 L326.845923,27.510264 Z M330.672236,31.999928 C332.358726,31.955616 333.231187,30.905024 333.290866,28.851016 C333.231187,26.728392 332.358726,25.64636 330.672236,25.600624 C328.965434,25.64636 328.082821,26.728392 328.023126,28.851016 C328.062494,30.905024 328.945115,31.955616 330.672236,31.999928 Z M330.672236,26.572592 C331.585327,26.572592 332.041242,27.331592 332.041242,28.851016 C332.041242,30.347568 331.585327,31.095128 330.672236,31.095128 C329.738832,31.095128 329.272758,30.347568 329.272758,28.851016 C329.272758,27.331592 329.738832,26.572592 330.672236,26.572592 Z M338.158541,25.734984 L338.158541,29.118304 C338.178861,29.855864 338.098854,30.357576 337.921064,30.626296 C337.741995,30.939328 337.424519,31.095128 336.968596,31.095128 C336.511427,31.095128 336.185046,30.939328 335.985666,30.626296 C335.807867,30.357576 335.727861,29.855864 335.74818,29.118304 L335.74818,25.734984 L334.556972,25.734984 L334.556972,29.621448 C334.597611,31.162312 335.400217,31.955616 336.968596,31.999928 C338.496345,31.955616 339.290062,31.162312 339.349757,29.621448 L339.349757,25.734984 L338.158541,25.734984 Z M340.377107,26.774136 L342.01407,26.774136 L342.01407,31.932744 L343.205278,31.932744 L343.205278,26.774136 L344.842241,26.774136 L344.842241,25.734984 L340.377107,25.734984 L340.377107,26.774136 Z M347.001112,31.932744 L347.001112,29.219792 L349.114308,29.219792 L349.114308,31.932744 L350.275037,31.932744 L350.275037,25.734984 L349.0851,25.734984 L349.0851,28.18064 L347.001112,28.18064 L347.001112,25.734984 L345.840375,25.734984 L345.840375,31.932744 L347.001112,31.932744 Z M351.602094,31.932744 L355.381453,31.932744 L355.381453,30.893592 L352.792039,30.893592 L352.792039,29.252672 L355.113505,29.252672 L355.113505,28.213512 L352.792039,28.213512 L352.792039,26.774136 L355.292558,26.774136 L355.292558,25.734984 L351.602094,25.734984 L351.602094,31.932744 L351.602094,31.932744 Z M357.808297,26.774136 L358.791235,26.774136 C359.346196,26.751264 359.624313,27.008552 359.624313,27.544568 C359.624313,28.124896 359.346196,28.415056 358.791235,28.415056 L357.808297,28.415056 L357.808297,26.774136 Z M357.808297,29.454208 L359.057921,29.454208 C359.356364,29.454208 359.525258,29.721504 359.564633,30.25752 C359.584945,30.837848 359.653529,31.396728 359.772903,31.932744 L361.053006,31.932744 C360.913312,31.686888 360.814258,31.195184 360.75457,30.459064 C360.75457,30.41332 360.745674,30.347568 360.725362,30.25752 C360.685995,29.36416 360.358343,28.90676 359.743687,28.883888 L359.743687,28.851016 C360.477725,28.649472 360.854896,28.14776 360.873945,27.343024 C360.854896,26.293864 360.219921,25.757848 358.969025,25.734984 L356.618352,25.734984 L356.618352,31.932744 L357.808297,31.932744 L357.808297,29.454208 L357.808297,29.454208 Z M367.08141,31.932744 L367.08141,25.734984 L365.979098,25.734984 L365.979098,30.591992 L365.949881,30.626296 L363.865901,25.734984 L362.109564,25.734984 L362.109564,31.932744 L363.211877,31.932744 L363.211877,26.807008 L363.241093,26.774136 L365.384761,31.932744 L367.08141,31.932744 L367.08141,31.932744 Z M374.472722,27.74468 C374.392716,26.338176 373.619325,25.623488 372.151256,25.600624 C370.681932,25.6678 369.918685,26.751264 369.859006,28.851016 C369.898374,30.905024 370.662884,31.955616 372.151256,31.999928 C373.639637,31.977056 374.413035,31.28524 374.472722,29.923048 L373.221819,29.923048 C373.202771,30.68204 372.845919,31.072264 372.151256,31.095128 C371.495961,31.050824 371.149269,30.301832 371.108638,28.851016 C371.149269,27.375904 371.495961,26.616904 372.151256,26.572592 C372.8256,26.595464 373.182451,26.98568 373.221819,27.74468 L374.472722,27.74468 Z M378.000599,31.999928 C379.687089,31.955616 380.559543,30.905024 380.61923,28.851016 C380.559543,26.728392 379.687089,25.64636 378.000599,25.600624 C376.29379,25.64636 375.411177,26.728392 375.351482,28.851016 C375.390858,30.905024 376.27347,31.955616 378.000599,31.999928 Z M378.000599,26.572592 C378.913691,26.572592 379.369598,27.331592 379.369598,28.851016 C379.369598,30.347568 378.913691,31.095128 378.000599,31.095128 C377.067188,31.095128 376.601114,30.347568 376.601114,28.851016 C376.601114,27.331592 377.067188,26.572592 378.000599,26.572592 Z M386.886382,26.605472 L386.886382,26.639776 L386.886382,31.932744 L387.987424,31.932744 L387.987424,25.734984 L386.142192,25.734984 L384.89256,30.25752 L384.862089,30.25752 L383.701352,25.734984 L381.767225,25.734984 L381.767225,31.932744 L382.868275,31.932744 L382.868275,26.639776 L382.897475,26.605472 L384.356647,31.932744 L385.338315,31.932744 L386.886382,26.605472 Z M390.533634,31.932744 L390.533634,29.554264 L391.395927,29.554264 C392.626511,29.487088 393.261487,28.851016 393.300846,27.644624 C393.321166,26.349608 392.576984,25.712112 391.068284,25.734984 L389.371634,25.734984 L389.371634,31.932744 L390.533634,31.932744 L390.533634,31.932744 Z M390.533634,26.774136 C390.612377,26.774136 390.731752,26.774136 390.890493,26.774136 C391.684203,26.684088 392.070279,26.974248 392.05123,27.644624 C392.070279,28.315 391.684203,28.60516 390.890493,28.515112 C390.731752,28.515112 390.612377,28.515112 390.533634,28.515112 L390.533634,26.774136 Z M395.102866,31.932744 L395.519413,30.626296 L397.692296,30.626296 L398.108835,31.932744 L399.300043,31.932744 L397.364653,25.734984 L395.96643,25.734984 L393.971345,31.932744 L395.102866,31.932744 Z M395.816585,29.587144 L396.620454,26.941376 L396.650933,26.941376 L397.395124,29.587144 L395.816585,29.587144 Z M405.210344,31.932744 L405.210344,25.734984 L404.108031,25.734984 L404.108031,30.591992 L404.078815,30.626296 L401.994835,25.734984 L400.238498,25.734984 L400.238498,31.932744 L401.340811,31.932744 L401.340811,26.807008 L401.370027,26.774136 L403.513694,31.932744 L405.210344,31.932744 L405.210344,31.932744 Z M407.994031,31.932744 L409.154768,31.932744 L409.154768,29.923048 L411,25.734984 L409.810063,25.734984 L408.649326,28.582296 L407.517797,25.734984 L406.11832,25.734984 L407.994031,29.923048 L407.994031,31.932744 L407.994031,31.932744 Z" id="形状" fill="#00A2E9" fill-rule="nonzero"></path>
            <polygon id="路径" fill="#00A2E9" points="31.9737851 0 0 0 0 32 31.9737851 32"></polygon>
            <polygon id="路径" fill="#FEFEFE" points="18.6533797 4.404536 23.2180954 4.404536 23.2180954 7.477632 19.8353152 7.477632 19.8353152 16.958608 23.2180954 16.958608 23.2180954 19.965384 19.8353152 19.965384 19.8353152 24.477664 23.2180954 24.477664 23.2180954 27.636576 18.6533797 27.636576"></polygon>
            <polygon id="路径" fill="#FEFEFE" points="13.8379174 4.363808 17.8142912 4.363808 17.8142912 12.536008 16.8587222 12.536008 16.684393 12.536008 16.684393 7.551816 16.4117684 7.551816 15.0225947 7.551816 15.0225947 13.905672 15.0225947 24.518752 15.0260878 24.518752 16.4117684 24.518752 16.8587222 24.518752 16.8587222 16.859792 18.0090276 16.859792 18.0090276 27.636576 13.8379174 27.636576"></polygon>
            <polygon id="路径" fill="#FEFEFE" points="8.5438313 4.43332 13.0372455 4.43332 13.0372455 12.59052 11.8431439 12.59052 11.8431439 7.587032 9.69901276 7.587032 9.69901276 16.926592 10.748273 16.926592 11.8431439 16.926592 13.0372455 16.926592 13.0372455 27.636576 8.5438313 27.636576 8.5438313 22.591344 9.71353686 22.591344 9.71353686 24.620008 11.8504579 24.620008 11.8504579 22.591344 11.8504579 22.285464 11.8504579 19.939864 8.5438313 19.939864"></polygon>
            <polygon id="路径" fill="#FEFEFE" points="23.9338209 16.982088 27.6137097 16.982088 27.6137097 21.992824 26.4598951 21.992824 26.4598951 19.999208 25.1486655 19.999208 25.1486655 24.498712 26.4598951 24.498712 26.4598951 22.818712 27.6137097 22.818712 27.6137097 27.636576 23.9338209 27.636576"></polygon>
            <polygon id="路径" fill="#FEFEFE" points="4.3600914 16.951064 7.88348438 16.951064 7.88348438 21.784456 6.71935825 21.784456 6.71935825 19.961264 5.57903661 19.961264 5.57903661 24.609608 6.71935825 24.609608 6.71935825 22.612504 7.88348438 22.612504 7.88348438 27.636576 4.3600914 27.636576"></polygon>
        </g>
    </g>
</svg>