<?xml version="1.0" encoding="UTF-8"?>
<svg width="16px" height="16px" viewBox="0 0 16 16" version="1.1" xmlns="http://www.w3.org/2000/svg" xmlns:xlink="http://www.w3.org/1999/xlink">
    <title>切片</title>
    <g id="Web端-UI公共控件规范" stroke="none" stroke-width="1" fill="none" fill-rule="evenodd">
        <g id="12公共页面" transform="translate(-1483.000000, -682.000000)" stroke="#595959" stroke-width="1.20062556">
            <g id="编组-2" transform="translate(100.000000, 326.000000)">
                <g id="04-图标库/06-基础图标/设置备份" transform="translate(1383.000000, 356.000000)">
                    <g id="编组" transform="translate(1.000000, 1.000000)">
                        <path d="M8.20806412,0.600312781 C9.31117589,2.15022361 9.79565215,2.48856489 10.203606,2.77733301 L10.3133762,2.85573189 L11.2724371,2.60789263 C11.4267237,2.49906496 11.610526,2.47321771 11.7755667,2.51742072 L11.7755667,2.51742072 L13.3147981,4.76793454 C12.5129231,6.14467618 12.4296761,6.56800065 12.4219428,6.85689631 L12.4213896,6.9805895 C12.4214092,7.1962299 12.4101736,7.39183157 12.3880501,7.58428016 C13.0163377,8.35846647 13.2375775,8.55678579 13.3386073,8.77440279 L13.3386073,8.77440279 L12.1359308,11.2100434 L10.5246158,10.9762181 C10.1215078,11.3094954 9.66737599,11.5865361 9.17518284,11.7949117 C8.80873323,12.7162821 8.74357501,13.0041236 8.60316792,13.1972633 L8.60316792,13.1972633 L5.79193588,13.3996872 C4.68882416,11.8497765 4.20434795,11.5114352 3.7963941,11.2226671 L3.68662391,11.1442682 L2.72757306,11.3921044 C2.5732855,11.5009322 2.38948228,11.5267787 2.22444125,11.4825745 L2.22444125,11.4825745 L0.685241889,9.23206434 C1.48707266,7.85531338 1.5703222,7.43199413 1.57805679,7.14310376 L1.57861045,7.0194129 C1.5785908,6.80377025 1.58982638,6.6081685 1.61194987,6.41571984 C0.983687941,5.64153806 0.76245683,5.44321624 0.661432316,5.22559859 L0.661432316,5.22559859 L1.86407744,2.78996561 L3.47538281,3.02378302 C3.87849119,2.6905052 4.33262345,2.41346415 4.82481716,2.2050883 C5.19126677,1.28371793 5.25642499,0.99587645 5.39683208,0.802736731 L5.39683208,0.802736731 Z" id="形状结合"></path>
                        <ellipse id="椭圆形" cx="7" cy="7" rx="1.8083769" ry="1.73302055"></ellipse>
                    </g>
                </g>
            </g>
        </g>
    </g>
</svg>