<?xml version="1.0" encoding="UTF-8"?>
<svg width="24px" height="24px" viewBox="0 0 24 24" version="1.1" xmlns="http://www.w3.org/2000/svg" xmlns:xlink="http://www.w3.org/1999/xlink">
    <title>切片</title>
    <g id="Web端-UI公共控件规范" stroke="none" stroke-width="1" fill="none" fill-rule="evenodd">
        <g id="12公共页面" transform="translate(-1354.000000, -346.000000)" fill="#595959">
            <g id="编组-2" transform="translate(100.000000, 326.000000)">
                <g id="编组-11" transform="translate(1214.000000, 16.000000)">
                    <g id="03-图标库/01基础图标/消息" transform="translate(40.000000, 4.000000)">
                        <path d="M14.25,21 C14.6642136,21 15,21.3357864 15,21.75 C15,22.1642136 14.6642136,22.5 14.25,22.5 L9.75,22.5 C9.33578644,22.5 9,22.1642136 9,21.75 C9,21.3357864 9.33578644,21 9.75,21 L14.25,21 Z M13.5,3 L13.500441,4.6960201 C16.4784096,5.46294127 19.2245556,8.38437339 19.5,11.7542473 L19.5,18 L21,18 L21,19.5 L3,19.5 L3,18 L4.5,18 L4.5,11.7542473 C4.7754751,8.38399758 7.52220298,5.46228968 10.5005553,4.6957636 L10.5,3 L13.5,3 Z M12,6 C9.30054843,6 6.43731897,8.62478403 6.03221911,11.4691662 L6,11.7542473 L6,18 L18.0015,18 L18.0049858,11.8764457 C17.7618495,8.90183959 14.977856,6.18110053 12.2703941,6.0086643 L12,6 Z" id="形状结合"></path>
                    </g>
                </g>
            </g>
        </g>
    </g>
</svg>