<?xml version="1.0" encoding="UTF-8"?>
<svg width="16px" height="16px" viewBox="0 0 16 16" version="1.1" xmlns="http://www.w3.org/2000/svg" xmlns:xlink="http://www.w3.org/1999/xlink">
    <title>切片</title>
    <g id="项目端-工作台" stroke="none" stroke-width="1" fill="none" fill-rule="evenodd">
        <g id="待办中心-已办" transform="translate(-16.000000, -186.000000)" fill="#FFFFFF">
            <g id="二级导航/分栏标题/不选中" transform="translate(0.000000, 174.000000)">
                <g id="04-图标库/05-导航图标/首页-16px" transform="translate(16.000000, 12.000000)">
                    <path d="M10,14 L10,15 L6,15 L6,14 L10,14 Z M9,2 L9.00045082,3.13072046 C10.9857028,3.64206341 12.8163752,5.58964141 13,7.83616486 L13,12 L14,12 L14,13 L2,13 L2,12 L3,12 L3,7.83616486 C3.18365575,5.58926213 5.01491542,3.64140579 7.00055472,3.13046159 L7,2 L9,2 Z M8,4 C6.20036562,4 4.29154598,5.74985602 4.02147941,7.64611078 L4,7.83616486 L4,12 L12.001,12 L12.0033238,7.91763047 C11.841233,5.93455973 9.98523735,4.12073369 8.18026276,4.0057762 L8,4 Z" id="形状结合"></path>
                </g>
            </g>
        </g>
    </g>
</svg>