<?xml version="1.0" encoding="UTF-8"?>
<svg width="80px" height="80px" viewBox="0 0 80 80" version="1.1" xmlns="http://www.w3.org/2000/svg" xmlns:xlink="http://www.w3.org/1999/xlink">
    <title>切片</title>
    <g id="Web端-UI公共控件规范" stroke="none" stroke-width="1" fill="none" fill-rule="evenodd">
        <g id="11缺省页" transform="translate(-441.000000, -286.000000)">
            <g id="04-图标库/空状态/消息备份-4" transform="translate(441.000000, 286.000000)">
                <g id="bells-(1)" transform="translate(2.000000, 8.206365)">
                    <path d="M71.136,10.8059126 L71.136,9.60481424 C71.136,8.93323598 71.6804217,8.38881424 72.352,8.38881424 C72.5395074,8.38881424 72.7244747,8.4321772 72.892445,8.51551393 L74.1028889,9.11606309 C74.7044928,9.41454265 74.9502237,10.1442045 74.6517442,10.7458084 C74.5336639,10.9838065 74.340887,11.1765834 74.1028889,11.2946637 L72.892445,11.8952129 C72.2908411,12.1936924 71.5611793,11.9479616 71.2626997,11.3463576 C71.179363,11.1783873 71.136,10.99342 71.136,10.8059126 Z" id="Triangle-36" fill-opacity="0.2" fill="#0053B3"></path>
                    <ellipse id="Oval-203" stroke-opacity="0.2" stroke="#0053B3" stroke-width="1.824" cx="16.416" cy="2.41322314" rx="2.432" ry="2.41322314"></ellipse>
                    <path d="M71.136,39.7947107 C71.5062184,39.7947107 71.8063398,40.0948321 71.8063398,40.4650505 L71.806,42.0521818 L73.5056602,42.0526477 C73.8758787,42.0526477 74.176,42.352769 74.176,42.7229875 C74.176,43.0932059 73.8758787,43.3933272 73.5056602,43.3933272 L71.806,43.3931818 L71.8063398,45.204371 C71.8063398,45.5745894 71.5062184,45.8747107 71.136,45.8747107 C70.7657816,45.8747107 70.4656602,45.5745894 70.4656602,45.204371 L70.465,43.3931818 L68.7663398,43.3933272 C68.3961213,43.3933272 68.096,43.0932059 68.096,42.7229875 C68.096,42.352769 68.3961213,42.0526477 68.7663398,42.0526477 L70.465,42.0521818 L70.4656602,40.4650505 C70.4656602,40.0948321 70.7657816,39.7947107 71.136,39.7947107 Z" id="Combined-Shape" fill-opacity="0.2" fill="#0053B3"></path>
                    <path d="M3.04,29.5385124 C3.41021843,29.5385124 3.71033976,29.8386337 3.71033976,30.2088522 L3.71,31.7959835 L5.40966024,31.7964493 C5.77987867,31.7964493 6.08,32.0965707 6.08,32.4667891 C6.08,32.8370075 5.77987867,33.1371289 5.40966024,33.1371289 L3.71,33.1369835 L3.71033976,34.9481726 C3.71033976,35.3183911 3.41021843,35.6185124 3.04,35.6185124 C2.66978157,35.6185124 2.36966024,35.3183911 2.36966024,34.9481726 L2.369,33.1369835 L0.670339761,33.1371289 C0.300121334,33.1371289 4.53386812e-17,32.8370075 0,32.4667891 C-4.53386812e-17,32.0965707 0.300121334,31.7964493 0.670339761,31.7964493 L2.369,31.7959835 L2.36966024,30.2088522 C2.36966024,29.8386337 2.66978157,29.5385124 3.04,29.5385124 Z" id="Combined-Shape-Copy" fill-opacity="0.2" fill="#0053B3"></path>
                    <ellipse id="Oval-4" fill-opacity="0.1" fill="#0053B3" cx="38.456" cy="65.8099174" rx="19.456" ry="1.80991736"></ellipse>
                </g>
                <g id="编组-3" transform="translate(16.000000, 24.000000)" fill="#CCDDF0">
                    <rect id="矩形" x="0" y="0" width="48" height="4" rx="2"></rect>
                    <rect id="矩形备份" x="0" y="40" width="48" height="4" rx="2"></rect>
                    <path d="M6,2.2 C6.99411255,2.2 7.8,3.00588745 7.8,4 C7.8,11.9254859 13.2825506,18.6899365 20.7732111,20.2372139 C21.746771,20.4383133 22.3729739,21.3905628 22.1718745,22.3641226 C21.9707751,23.3376825 21.0185257,23.9638854 20.0449658,23.7627861 C10.8784694,21.8693465 4.2,13.6293539 4.2,4 C4.2,3.00588745 5.00588745,2.2 6,2.2 Z M42,2.2 C42.9941125,2.2 43.8,3.00588745 43.8,4 C43.8,13.6135413 37.143151,21.8439835 27.9965205,23.7541693 C27.0234024,23.9573957 26.0697868,23.3332751 25.8665605,22.3601571 C25.6633341,21.387039 26.2874547,20.4334234 27.2605727,20.230197 C34.7351309,18.6692074 40.2,11.9125138 40.2,4 C40.2,3.00588745 41.0058875,2.2 42,2.2 Z" id="形状" fill-rule="nonzero"></path>
                    <path d="M6,20.2030291 C6.99411255,20.2030291 7.8,21.0089166 7.8,22.0030291 C7.8,29.9246151 13.2778984,36.6866337 20.7643562,38.2374183 C21.7378032,38.4390633 22.3634724,39.3916635 22.1618274,40.3651105 C21.9601824,41.3385575 21.0075822,41.9642267 20.0341352,41.7625817 C10.8728387,39.8648622 4.2,31.6277873 4.2,22.0030291 C4.2,21.0089166 5.00588745,20.2030291 6,20.2030291 Z M42,20.2 C42.9941125,20.2 43.8,21.0058875 43.8,22 C43.8,31.6113103 37.1455445,39.8402597 28.0011468,41.7522099 C27.0280763,41.9556637 26.0743148,41.331766 25.870861,40.3586955 C25.6674072,39.3856249 26.2913049,38.4318635 27.2643755,38.2284097 C34.7371358,36.6659727 40.2,29.910554 40.2,22 C40.2,21.0058875 41.0058875,20.2 42,20.2 Z" id="形状" fill-rule="nonzero" transform="translate(24.000000, 31.000180) scale(1, -1) translate(-24.000000, -31.000180) "></path>
                </g>
            </g>
        </g>
    </g>
</svg>