<?xml version="1.0" encoding="UTF-8"?>
<svg width="16px" height="16px" viewBox="0 0 16 16" version="1.1" xmlns="http://www.w3.org/2000/svg" xmlns:xlink="http://www.w3.org/1999/xlink">
    <title>切片</title>
    <g id="项目端-物资管理" stroke="none" stroke-width="1" fill-rule="evenodd">
        <g id="物资管理-总计划管理-（物资需用总计划）变更记录" transform="translate(-16.000000, -186.000000)" fill-rule="nonzero">
            <g id="二级导航/分栏标题/选中" transform="translate(0.000000, 174.000000)">
                <g id="图标" transform="translate(16.000000, 12.000000)">
                    <g id="编组" transform="translate(2.000000, 1.500000)">
                        <path d="M9.5,1.5 C9.77614237,1.5 10,1.72385763 10,2 L10,13 C10,13.2761424 9.77614237,13.5 9.5,13.5 L0.5,13.5 C0.223857625,13.5 0,13.2761424 0,13 L0,2 C0,1.72385763 0.223857625,1.5 0.5,1.5 L9.5,1.5 Z M9,2.5 L1,2.5 L1,12.5 L9,12.5 L9,2.5 Z M11,-0.5 C11.5128358,-0.5 11.9355072,-0.11395981 11.9932723,0.383378875 L12,0.5 L12,10 L11,10 L11,0.5 L1.5,0.5 L1.5,-0.5 L11,-0.5 Z M4.94,6.5 C4.973,6.5 5,6.55625 5,6.625 L5,6.625 L5,7.375 C5,7.44375 4.973,7.5 4.94,7.5 L4.94,7.5 L2.06,7.5 C2.027,7.5 2,7.44375 2,7.375 L2,7.375 L2,6.625 C2,6.55625 2.027,6.5 2.06,6.5 L2.06,6.5 Z M7.88,4.5 C7.946,4.5 8,4.55625 8,4.625 L8,4.625 L8,5.375 C8,5.44375 7.946,5.5 7.88,5.5 L7.88,5.5 L2.12,5.5 C2.054,5.5 2,5.44375 2,5.375 L2,5.375 L2,4.625 C2,4.55625 2.054,4.5 2.12,4.5 L2.12,4.5 Z" id="形状结合"></path>
                    </g>
                </g>
            </g>
        </g>
    </g>
</svg>