<?xml version="1.0" encoding="UTF-8"?>
<svg width="16px" height="16px" viewBox="0 0 16 16" version="1.1" xmlns="http://www.w3.org/2000/svg" xmlns:xlink="http://www.w3.org/1999/xlink">
    <title>切片</title>
    <g id="Web端-UI公共控件规范" stroke="none" stroke-width="1" fill="none" fill-rule="evenodd">
        <g id="12公共页面" transform="translate(-116.000000, -794.000000)" fill="#FFFFFF" fill-rule="nonzero">
            <g id="编组-2" transform="translate(100.000000, 326.000000)">
                <g id="二级导航/分栏标题/不选中备份-2" transform="translate(0.000000, 456.000000)">
                    <g id="04-图标库/05-导航图标/首页-16px" transform="translate(16.000000, 12.000000)">
                        <path d="M13.5,0.839554959 C13.7761424,0.839554959 14,1.06341258 14,1.33955496 L14,14.339555 C14,14.6156973 13.7761424,14.839555 13.5,14.839555 L2.5,14.839555 C2.22385763,14.839555 2,14.6156973 2,14.339555 L2,1.33955496 C2,1.06341258 2.22385763,0.839554959 2.5,0.839554959 L13.5,0.839554959 Z M13,1.839 L3,1.839 L3,13.839 L13,13.839 L13,1.839 Z M6,10.5 L6,11.5 L5,11.5 L5,10.5 L6,10.5 Z M11,10.5 L11,11.5 L7,11.5 L7,10.5 L11,10.5 Z M6,7.5 L6,8.5 L5,8.5 L5,7.5 L6,7.5 Z M11,7.5 L11,8.5 L7,8.5 L7,7.5 L11,7.5 Z M6,4.5 L6,5.5 L5,5.5 L5,4.5 L6,4.5 Z M11,4.5 L11,5.5 L7,5.5 L7,4.5 L11,4.5 Z" id="形状结合"></path>
                    </g>
                </g>
            </g>
        </g>
    </g>
</svg>