<?xml version="1.0" encoding="UTF-8"?>
<svg width="16px" height="16px" viewBox="0 0 16 16" version="1.1" xmlns="http://www.w3.org/2000/svg" xmlns:xlink="http://www.w3.org/1999/xlink">
    <title>切片</title>
    <g id="供应商pc端" stroke="none" stroke-width="1" fill="none" fill-rule="evenodd">
        <g id="物资管理-月度结算管理-结算单详情" transform="translate(-368.000000, -625.000000)" fill="#8C8C8C">
            <g id="编组" transform="translate(224.000000, 538.000000)">
                <g id="04-图标库/状态图标/疑问备份" transform="translate(144.000000, 87.000000)">
                    <path d="M8,0.5 C3.85823263,0.5 0.5,3.85823263 0.5,8 C0.5,12.1417674 3.85823263,15.5 8,15.5 C12.1417674,15.5 15.5,12.1417674 15.5,8 C15.5,3.85823263 12.1417674,0.5 8,0.5 Z M8,1.5 C11.5894826,1.5 14.5,4.41051737 14.5,8 C14.5,11.5894826 11.5894826,14.5 8,14.5 C4.41051737,14.5 1.5,11.5894826 1.5,8 C1.5,4.41051737 4.41051737,1.5 8,1.5 Z" id="路径" fill-rule="nonzero"></path>
                    <path d="M8,10.8125 C8.3453125,10.8125 8.625,11.0921875 8.625,11.4375 C8.625,11.7828125 8.3453125,12.0625 8,12.0625 C7.6546875,12.0625 7.375,11.7828125 7.375,11.4375 C7.375,11.0921875 7.6546875,10.8125 8,10.8125 Z M8,4.3125 C8.65625,4.3125 9.275,4.5390625 9.74375,4.9484375 C10.23125,5.375 10.5,5.9484375 10.5,6.5625 C10.5,7.465625 9.9046875,8.278125 8.9828125,8.6328125 C8.69375,8.74375 8.5,9.025 8.5,9.3328125 L8.5,9.6875 C8.5,9.75625 8.44375,9.8125 8.375,9.8125 L7.625,9.8125 C7.55625,9.8125 7.5,9.75625 7.5,9.6875 L7.5,9.3515625 C7.5,8.990625 7.6046875,8.634375 7.8109375,8.3375 C8.0125,8.046875 8.29375,7.825 8.625,7.6984375 C9.15625,7.49375 9.5,7.0484375 9.5,6.5625 C9.5,5.8734375 8.8265625,5.3125 8,5.3125 C7.1734375,5.3125 6.5,5.8734375 6.5,6.5625 L6.5,6.68125 C6.5,6.75 6.44375,6.80625 6.375,6.80625 L5.625,6.80625 C5.55625,6.80625 5.5,6.75 5.5,6.68125 L5.5,6.5625 C5.5,5.9484375 5.76875,5.375 6.25625,4.9484375 C6.725,4.5375 7.34375,4.3125 8,4.3125 Z" id="形状结合"></path>
                </g>
            </g>
        </g>
    </g>
</svg>