<?xml version="1.0" encoding="UTF-8"?>
<svg width="16px" height="16px" viewBox="0 0 16 16" version="1.1" xmlns="http://www.w3.org/2000/svg" xmlns:xlink="http://www.w3.org/1999/xlink">
    <title>切片</title>
    <g id="Web端-UI公共控件规范" stroke="none" stroke-width="1" fill="none" fill-rule="evenodd" fill-opacity="0.65">
        <g id="12公共页面" transform="translate(-1435.000000, -682.000000)" fill="#000000">
            <g id="编组-2" transform="translate(100.000000, 326.000000)">
                <g id="04-图标库/06-基础图标/刷新" transform="translate(1335.000000, 356.000000)">
                    <path d="M13.8097794,3.67571429 L12.9845145,4.30571429 C11.8592864,2.90142857 10.1092567,2 8.14413132,2 C4.75088808,2 2.00439495,4.67857143 2,7.99285714 C1.99561554,11.31 4.74796161,14 8.14413132,14 C10.7969774,14 13.0576763,12.3571429 13.9180588,10.0557143 C13.9400073,9.99571429 13.9078162,9.92857143 13.8463603,9.90857143 L13.0167057,9.63 C12.9567131,9.61 12.8908675,9.64 12.8689189,9.69857143 C12.8425807,9.77 12.813316,9.84142857 12.782588,9.91142857 C12.5294483,10.4971429 12.1665659,11.0228571 11.7041834,11.4742857 C11.241801,11.9257143 10.7033303,12.28 10.104867,12.5285714 C9.48591832,12.7842857 8.82599909,12.9142857 8.14705779,12.9142857 C7.46665326,12.9142857 6.80819727,12.7842857 6.18924863,12.5285714 C5.59078529,12.2814286 5.0523146,11.9271429 4.58993217,11.4742857 C4.12754974,11.0228571 3.76466732,10.4971429 3.51152757,9.91142857 C3.2496084,9.30571429 3.11645397,8.66285714 3.11645397,7.99857143 C3.11645397,7.33428571 3.2496084,6.69142857 3.51152757,6.08571429 C3.76466732,5.5 4.12754974,4.97428571 4.58993217,4.52285714 C5.0523146,4.07142857 5.59078529,3.71714286 6.18924863,3.46857143 C6.80819727,3.21285714 7.4681165,3.08285714 8.14705779,3.08285714 C8.82746233,3.08285714 9.48591832,3.21285714 10.104867,3.46857143 C10.7033303,3.71571429 11.241801,4.07 11.7041834,4.52285714 C11.8490437,4.66428571 11.9851246,4.81428571 12.1109629,4.97142857 L11.2300951,5.64285714 C11.1525436,5.70142857 11.1788819,5.82142857 11.2739922,5.84428571 L13.8434338,6.45857143 C13.9165956,6.47571429 13.9882941,6.42142857 13.9882941,6.34857143 L14,3.76428571 C13.9985368,3.67 13.8858676,3.61714286 13.8097794,3.67571429 L13.8097794,3.67571429 Z" id="路径"></path>
                </g>
            </g>
        </g>
    </g>
</svg>