<?xml version="1.0" encoding="UTF-8"?>
<svg width="24px" height="24px" viewBox="0 0 24 24" version="1.1" xmlns="http://www.w3.org/2000/svg" xmlns:xlink="http://www.w3.org/1999/xlink">
    <title>切片</title>
    <g id="Web端-UI公共控件规范" stroke="none" stroke-width="1" fill="none" fill-rule="evenodd">
        <g id="12公共页面" transform="translate(-1314.000000, -346.000000)" fill="#595959">
            <g id="编组-2" transform="translate(100.000000, 326.000000)">
                <g id="编组-11" transform="translate(1214.000000, 16.000000)">
                    <g id="03-图标库/01基础图标/设置备份-2" transform="translate(0.000000, 4.000000)">
                        <path d="M7.24264069,3 L8.30330086,4.06066017 L5.87066017,6.49166017 L13.2426407,6.49264069 L13.2426407,7.99264069 L5.87066017,7.99166017 L8.30330086,10.4246212 L7.24264069,11.4852814 L3,7.24264069 L7.24264069,3 Z" id="形状结合"></path>
                        <path d="M14.6869805,12.51 L15.7476407,13.5706602 L13.316,16.0016602 L20.6869805,16.0026407 L20.6869805,17.5026407 L13.316,17.5016602 L15.7476407,19.9346212 L14.6869805,20.9952814 L11.5057071,17.8125938 L11.505,17.8133009 L10.4443398,16.7526407 L14.6869805,12.51 Z" id="形状结合备份" transform="translate(15.720990, 16.752641) scale(-1, 1) translate(-15.720990, -16.752641) "></path>
                    </g>
                </g>
            </g>
        </g>
    </g>
</svg>