<?xml version="1.0" encoding="UTF-8"?>
<svg width="24px" height="24px" viewBox="0 0 24 24" version="1.1" xmlns="http://www.w3.org/2000/svg" xmlns:xlink="http://www.w3.org/1999/xlink">
    <title>切片</title>
    <g id="业务中心-物资管理" stroke="none" stroke-width="1" fill="none" fill-rule="evenodd">
        <g id="物资管理-总计划管理" transform="translate(-556.000000, -162.000000)" fill="#595959" fill-rule="nonzero">
            <g id="pageheader备份" transform="translate(208.000000, 64.000000)">
                <g id="04-图标库/状态图标/警示备份" transform="translate(348.000000, 98.000000)">
                    <path d="M19.4,13.6839449 C19.4552285,13.6839449 19.5,13.7287164 19.5,13.7839449 L19.5,15.0839449 C19.4999959,15.1391718 19.4552269,15.1839426 19.4,15.1839491 L6.28024157,15.1844934 L8.10027995,18.3478978 C8.11512449,18.373699 8.117703,18.4047723 8.10731429,18.4326674 L7.5727939,19.8679305 C7.55351902,19.9196863 7.49593726,19.9460173 7.44418146,19.9267424 C7.42284016,19.9187945 7.4048509,19.9038003 7.39318884,19.8842397 L4.64284307,15.2711266 C4.54935182,15.1086438 4.5,14.9230493 4.5,14.7339449 C4.5,14.2023708 4.88172578,13.7630576 5.37698913,13.6935302 L5.51467444,13.6839449 L19.4,13.6839449 Z M16.5558185,4.44114742 C16.5771598,4.44909535 16.5951491,4.46408951 16.6068112,4.48365011 L19.3571569,9.09676316 C19.4506482,9.25924596 19.5,9.44484051 19.5,9.6339449 C19.5,10.165519 19.1182742,10.6048322 18.6230109,10.6743596 L18.4853256,10.6839449 L4.6,10.6839449 C4.54477153,10.6839449 4.5,10.6391734 4.5,10.5839449 L4.5,9.2839449 C4.50000415,9.22871805 4.54477315,9.18394719 4.6,9.18394075 L17.7197584,9.18339643 L15.89972,6.01999202 C15.8848755,5.99419077 15.882297,5.96311754 15.8926857,5.93522239 L16.4272061,4.49995933 C16.446481,4.44820352 16.5040627,4.42187254 16.5558185,4.44114742 Z" id="形状结合"></path>
                </g>
            </g>
        </g>
    </g>
</svg>