<?xml version="1.0" encoding="UTF-8"?>
<svg width="88px" height="88px" viewBox="0 0 88 88" version="1.1" xmlns="http://www.w3.org/2000/svg" xmlns:xlink="http://www.w3.org/1999/xlink">
    <title>切片</title>
    <g id="企业端-主数据" stroke="none" stroke-width="1" fill="none" fill-rule="evenodd">
        <g id="打印模板" transform="translate(-96.000000, -176.000000)" fill="#008CD6" fill-rule="nonzero">
            <g id="04-图标库/单一logo" transform="translate(96.000000, 176.000000)">
                <path d="M0,88 L88,88 L88,0 L0,0 L0,88 Z M14.9127018,67.8387561 L19.2985718,67.8387561 L19.2985718,62.7631201 L21.7359926,62.7631201 L21.7359926,75.5749177 L12.475281,75.5749177 L12.475281,46.6977098 L21.7359926,46.6977098 L21.7359926,59.4444351 L19.2985718,59.4444351 L19.2985718,54.4338714 L14.9127018,54.4338714 L14.9127018,67.8387561 L14.9127018,67.8387561 Z M33.919378,12.1554973 L36.3921238,12.1554973 L36.3921238,34.7671765 L33.919378,34.7671765 L33.919378,20.0273811 L27.2355278,20.0273811 L27.2355278,46.4857601 L36.3921238,46.4857601 L36.3921238,75.5749177 L24.7646413,75.5749177 L24.7646413,62.5158455 L27.2355278,62.5158455 L27.2355278,67.7011747 L33.919378,67.7011747 L33.919378,54.3595031 L24.7646413,54.3595031 L24.7646413,12.1554973 L33.919378,12.1554973 Z M47.4469704,12.1926815 L49.7003296,12.1926815 L49.7003296,34.9995775 L47.4469704,34.9995775 L47.4469704,19.8823629 L41.6127779,19.8823629 L41.6127779,67.8852362 L47.4469704,67.8852362 L47.4469704,46.8018254 L49.7003296,46.8018254 L49.7003296,75.5749177 L39.3575594,75.5749177 L39.3575594,12.1926815 L47.4469704,12.1926815 Z M53.0152962,12.0588186 L64.5516775,12.0588186 L64.5516775,19.8823629 L55.4025184,19.8823629 L55.4025184,46.5359587 L64.5516775,46.5359587 L64.5516775,54.3595031 L55.4025184,54.3595031 L55.4025184,67.7513733 L64.5516775,67.7513733 L64.5516775,75.5749177 L53.0152962,75.5749177 L53.0152962,12.0588186 Z M69.677512,67.8387561 L74.0633821,67.8387561 L74.0633821,62.7631201 L76.5008029,62.7631201 L76.5008029,75.5749177 L67.2400913,75.5749177 L67.2400913,46.6977098 L76.5008029,46.6977098 L76.5008029,59.4444351 L74.0633821,59.4444351 L74.0633821,54.4338714 L69.677512,54.4338714 L69.677512,67.8387561 Z" id="形状"></path>
            </g>
        </g>
    </g>
</svg>