<?xml version="1.0" encoding="UTF-8"?>
<svg width="32px" height="32px" viewBox="0 0 32 32" version="1.1" xmlns="http://www.w3.org/2000/svg" xmlns:xlink="http://www.w3.org/1999/xlink">
    <title>切片</title>
    <g id="企业端-主数据" stroke="none" stroke-width="1" fill="none" fill-rule="evenodd">
        <g id="打印模板" transform="translate(-176.000000, -24.000000)">
            <g id="04-图标库/06-基础图标/打印备份" transform="translate(176.000000, 24.000000)">
                <path d="M16,2 C20.7290135,2 24.6061487,5.64732426 24.9718071,10.2823741 C27.8774331,11.1326071 30,13.8184275 30,17 C30,19.9490221 28.1763823,22.4721155 25.5953193,23.5031076 L21.7151144,19.6805945 C21.547246,19.5152315 21.2829709,19.4994618 21.0966289,19.6436886 L21.0966289,19.6436886 L19.9994338,20.492 L20,11.4707454 C20,11.2107599 19.7892401,11 19.5292546,11 L19.5292546,11 L12.4707454,11 C12.2107599,11 12,11.2107599 12,11.4707454 L12,11.4707454 L11.9994338,20.578 L10.5812366,19.6162303 C10.3903566,19.4868379 10.1338446,19.5147693 9.97528671,19.6822118 L9.97528671,19.6822118 L6.37131123,23.4896782 C3.80791387,22.4503333 2,19.9362971 2,17 C2,13.8184275 4.12256693,11.1326071 7.02889104,10.2813485 C7.39385132,5.64732426 11.2709865,2 16,2 Z" id="形状结合" fill-opacity="0.3" fill="#00CC33"></path>
                <path d="M17.2,12.4 C17.4209139,12.4 17.6,12.5790861 17.6,12.8 L17.5997555,24.545 L20.5839269,21.5856646 C20.7407957,21.4301396 20.9940372,21.4311688 21.1496367,21.5879636 L22.8398698,23.2918158 C22.9954515,23.448651 22.9944353,23.701915 22.8376,23.8574966 L17.1268221,29.522628 C16.560302,30.0846198 15.6783248,30.1362839 15.0538074,29.6772243 L14.8747489,29.5241843 L9.14776564,23.8586602 C8.9907155,23.7032954 8.98934923,23.4500331 9.14471398,23.292983 L10.8325906,21.5867964 C10.9879574,21.4297509 11.2412171,21.4283832 11.3982711,21.5837414 L14.3997555,24.553 L14.4,12.8 C14.4,12.5790861 14.5790861,12.4 14.8,12.4 L17.2,12.4 Z" id="形状结合备份-2" fill="#1791FF"></path>
            </g>
        </g>
    </g>
</svg>