<?xml version="1.0" encoding="UTF-8"?>
<svg width="16px" height="16px" viewBox="0 0 16 16" version="1.1" xmlns="http://www.w3.org/2000/svg" xmlns:xlink="http://www.w3.org/1999/xlink">
    <title>切片</title>
    <defs>
        <polygon id="path-1" points="14 5 9.43871118 5 6.36801121 10.5 6.36801121 15.5700169 0 15.5700169 0 0 14 0.516754203"></polygon>
    </defs>
    <g id="项目端-工作台" stroke="none" stroke-width="1" fill="none" fill-rule="evenodd">
        <g id="待办中心-已办" transform="translate(-16.000000, -138.000000)">
            <g id="二级导航/分栏标题/选中" transform="translate(0.000000, 126.000000)">
                <g id="图标" transform="translate(16.000000, 12.000000)">
                    <g id="编组-2" transform="translate(0.000000, 0.000000)">
                        <mask id="mask-2" fill="white">
                            <use xlink:href="#path-1"></use>
                        </mask>
                        <g id="蒙版"></g>
                    </g>
                    <g id="编组-3" transform="translate(2.000000, 1.000000)" fill="#FFFFFF" fill-rule="nonzero">
                        <path d="M6,0 C8.209139,0 10,1.790861 10,4 C10,5.67850691 8.96613922,7.1155427 7.50047642,7.70904859 L7.5,9 L10,9 C11.1045695,9 12,9.8954305 12,11 L12,14 L0,14 L0,11 C0,9.8954305 0.8954305,9 2,9 L4.5,9 L4.5005144,7.70944966 C3.03432675,7.11619029 2,5.67888513 2,4 C2,1.790861 3.790861,0 6,0 Z M10,10 L2,10 C1.48716416,10 1.06449284,10.3860402 1.00672773,10.8833789 L1,11 L1,13 L11,13 L11,11 C11,10.4871642 10.6139598,10.0644928 10.1166211,10.0067277 L10,10 Z M6,8 C5.83075283,8 5.66396072,7.98948865 5.50024088,7.96908315 L5.5,9 L6.5,9 L6.50075535,7.96895886 C6.33671591,7.98944596 6.16959047,8 6,8 Z M6,1 C4.34314575,1 3,2.34314575 3,4 C3,5.65685425 4.34314575,7 6,7 C7.65685425,7 9,5.65685425 9,4 C9,2.34314575 7.65685425,1 6,1 Z" id="形状结合"></path>
                    </g>
                </g>
            </g>
        </g>
    </g>
</svg>