<?xml version="1.0" encoding="UTF-8"?>
<svg width="14px" height="17px" viewBox="0 0 14 17" version="1.1" xmlns="http://www.w3.org/2000/svg" xmlns:xlink="http://www.w3.org/1999/xlink">
    <title>切片</title>
    <g id="项目端-物资管理" stroke="none" stroke-width="1" fill="none" fill-rule="evenodd">
        <g id="物资管理-月度结算管理-上传发票" transform="translate(-1064.000000, -476.000000)" fill="#595959">
            <g id="03-输入组件/01-输入框/标题+输入框+标备份-4" transform="translate(1052.000000, 467.000000)">
                <g id="04-图标库/05-导航图标/供应商-16px" transform="translate(12.000000, 9.900000)">
                    <path d="M5.46875,4.77791016 L6.47910156,4.77791016 L6.47910156,9.865625 C6.47910156,9.93179688 6.52832031,9.9859375 6.58847656,9.9859375 L7.40878906,9.9859375 C7.46894531,9.9859375 7.51816406,9.93179688 7.51816406,9.865625 L7.51816406,4.77791016 L8.53125,4.77791016 C8.62285156,4.77791016 8.6734375,4.66210938 8.61738281,4.58390625 L7.08613281,2.45136719 C7.04238281,2.38970703 6.95761719,2.38970703 6.91386719,2.45136719 L5.38261719,4.58240234 C5.3265625,4.66210938 5.37714844,4.77791016 5.46875,4.77791016 L5.46875,4.77791016 Z M12.0039062,9.41445313 L11.1835938,9.41445313 C11.1234375,9.41445313 11.0742188,9.46859375 11.0742188,9.53476563 L11.0742188,11.8507813 L2.92578125,11.8507813 L2.92578125,9.53476563 C2.92578125,9.46859375 2.8765625,9.41445313 2.81640625,9.41445313 L1.99609375,9.41445313 C1.9359375,9.41445313 1.88671875,9.46859375 1.88671875,9.53476563 L1.88671875,12.5125 C1.88671875,12.7786914 2.08222656,12.99375 2.32421875,12.99375 L11.6757812,12.99375 C11.9177734,12.99375 12.1132812,12.7786914 12.1132812,12.5125 L12.1132812,9.53476563 C12.1132812,9.46859375 12.0640625,9.41445313 12.0039062,9.41445313 Z" id="形状"></path>
                </g>
            </g>
        </g>
    </g>
</svg>