<?xml version="1.0" encoding="UTF-8"?>
<svg width="16px" height="16px" viewBox="0 0 16 16" version="1.1" xmlns="http://www.w3.org/2000/svg" xmlns:xlink="http://www.w3.org/1999/xlink">
    <title>切片</title>
    <g id="企业端-工作台" stroke="none" stroke-width="1" fill="none" fill-rule="evenodd">
        <g id="个人中心" transform="translate(-368.000000, -230.000000)">
            <g id="编组-4" transform="translate(224.000000, 134.000000)">
                <g id="编组-2" transform="translate(144.000000, 94.000000)">
                    <g id="图标库/个人中心" transform="translate(0.000000, 2.000000)">
                        <rect id="矩形" x="0" y="0" width="16" height="16"></rect>
                        <path d="M9.2859375,9.3984375 C9.56875,9.0875 9.740625,8.6734375 9.740625,8.21875 C9.740625,7.2515625 8.9609375,6.46875 8,6.46875 C7.0390625,6.46875 6.259375,7.2515625 6.259375,8.21875 C6.259375,8.6734375 6.43125,9.0859375 6.7140625,9.3984375 C6.046875,9.8125 5.5921875,10.5359375 5.5484375,11.36875 C5.5453125,11.440625 5.6015625,11.5 5.6734375,11.5 L6.359375,11.5 C6.425,11.5 6.478125,11.4484375 6.4828125,11.3828125 C6.5421875,10.5921875 7.2015625,9.96875 8.0015625,9.96875 C8.8015625,9.96875 9.4609375,10.59375 9.5203125,11.3828125 C9.525,11.4484375 9.578125,11.5 9.64375,11.5 L10.328125,11.5 C10.4,11.5 10.45625,11.440625 10.453125,11.36875 C10.409375,10.5359375 9.953125,9.8109375 9.2859375,9.3984375 Z M8,9.03125 C7.5546875,9.03125 7.1921875,8.6671875 7.1921875,8.21875 C7.1921875,7.7703125 7.5546875,7.40625 8,7.40625 C8.4453125,7.40625 8.8078125,7.7703125 8.8078125,8.21875 C8.8078125,8.6671875 8.4453125,9.03125 8,9.03125 Z M14.5,3.5 L12,3.5 L12,2.625 C12,2.55625 11.94375,2.5 11.875,2.5 L11,2.5 C10.93125,2.5 10.875,2.55625 10.875,2.625 L10.875,3.5 L8.5625,3.5 L8.5625,2.625 C8.5625,2.55625 8.50625,2.5 8.4375,2.5 L7.5625,2.5 C7.49375,2.5 7.4375,2.55625 7.4375,2.625 L7.4375,3.5 L5.125,3.5 L5.125,2.625 C5.125,2.55625 5.06875,2.5 5,2.5 L4.125,2.5 C4.05625,2.5 4,2.55625 4,2.625 L4,3.5 L1.5,3.5 C1.2234375,3.5 1,3.7234375 1,4 L1,13 C1,13.2765625 1.2234375,13.5 1.5,13.5 L14.5,13.5 C14.7765625,13.5 15,13.2765625 15,13 L15,4 C15,3.7234375 14.7765625,3.5 14.5,3.5 Z M13.875,12.375 L2.125,12.375 L2.125,4.625 L4,4.625 L4,5.5 C4,5.56875 4.05625,5.625 4.125,5.625 L5,5.625 C5.06875,5.625 5.125,5.56875 5.125,5.5 L5.125,4.625 L7.4375,4.625 L7.4375,5.5 C7.4375,5.56875 7.49375,5.625 7.5625,5.625 L8.4375,5.625 C8.50625,5.625 8.5625,5.56875 8.5625,5.5 L8.5625,4.625 L10.875,4.625 L10.875,5.5 C10.875,5.56875 10.93125,5.625 11,5.625 L11.875,5.625 C11.94375,5.625 12,5.56875 12,5.5 L12,4.625 L13.875,4.625 L13.875,12.375 Z" id="形状" fill="#5A5A5A" fill-rule="nonzero"></path>
                    </g>
                </g>
            </g>
        </g>
    </g>
</svg>