<?xml version="1.0" encoding="UTF-8"?>
<svg width="16px" height="16px" viewBox="0 0 16 16" version="1.1" xmlns="http://www.w3.org/2000/svg" xmlns:xlink="http://www.w3.org/1999/xlink">
    <title>切片</title>
    <g id="企业端-系统管理" stroke="none" stroke-width="1" fill-rule="evenodd">
        <g id="系统管理-组织管理" transform="translate(-296.000000, -271.000000)" fill-rule="nonzero">
            <g id="05-基础组件/表格文字/文字" transform="translate(296.000000, 268.000000)">
                <g id="03-图标库/01基础图标/向右" transform="translate(0.000000, 3.000000)">
                    <path d="M4.5,9.5 L6.5,9.5 L6.5,14.5 L1.5,14.5 L1.5,9.5 L3.5,9.5 L3.5,7.5 L7.5,7.5 L7.5,6.5 L5.5,6.5 L5.5,1.5 L10.5,1.5 L10.5,6.5 L8.5,6.5 L8.5,7.5 L12.5,7.5 L12.5,9.5 L14.5,9.5 L14.5,14.5 L9.5,14.5 L9.5,9.5 L11.5,9.5 L11.5,8.5 L4.5,8.5 L4.5,9.5 Z M13.5,10.5 L10.5,10.5 L10.5,13.5 L13.5,13.5 L13.5,10.5 Z M5.5,10.5 L2.5,10.5 L2.5,13.5 L5.5,13.5 L5.5,10.5 Z M9.5,2.5 L6.5,2.5 L6.5,5.5 L9.5,5.5 L9.5,2.5 Z" id="形状结合"></path>
                </g>
            </g>
        </g>
    </g>
</svg>