<?xml version="1.0" encoding="UTF-8"?>
<svg width="112px" height="112px" viewBox="0 0 112 112" version="1.1" xmlns="http://www.w3.org/2000/svg" xmlns:xlink="http://www.w3.org/1999/xlink">
    <title>04-图标库/单一logo</title>
    <g id="04-图标库/单一logo" stroke="none" stroke-width="1" fill="none" fill-rule="evenodd">
        <path d="M0,112 L112,112 L112,0 L0,0 L0,112 Z M18.9798023,86.340235 L24.5618187,86.340235 L24.5618187,79.8803347 L27.6639905,79.8803347 L27.6639905,96.1862588 L15.8776304,96.1862588 L15.8776304,59.4334488 L27.6639905,59.4334488 L27.6639905,75.6565538 L24.5618187,75.6565538 L24.5618187,69.2794726 L18.9798023,69.2794726 L18.9798023,86.340235 L18.9798023,86.340235 Z M43.1701174,15.4706329 L46.3172484,15.4706329 L46.3172484,44.2491338 L43.1701174,44.2491338 L43.1701174,25.4893941 L34.663399,25.4893941 L34.663399,59.1636947 L46.3172484,59.1636947 L46.3172484,96.1862588 L31.5186343,96.1862588 L31.5186343,79.5656216 L34.663399,79.5656216 L34.663399,86.1651314 L43.1701174,86.1651314 L43.1701174,69.1848221 L31.5186343,69.1848221 L31.5186343,15.4706329 L43.1701174,15.4706329 Z M60.3870532,15.5179583 L63.254965,15.5179583 L63.254965,44.5449168 L60.3870532,44.5449168 L60.3870532,25.3048255 L52.9617173,25.3048255 L52.9617173,86.3993916 L60.3870532,86.3993916 L60.3870532,59.5659596 L63.254965,59.5659596 L63.254965,96.1862588 L50.0914392,96.1862588 L50.0914392,15.5179583 L60.3870532,15.5179583 Z M67.4740134,15.3475873 L82.1566805,15.3475873 L82.1566805,25.3048255 L70.5122961,25.3048255 L70.5122961,59.2275839 L82.1566805,59.2275839 L82.1566805,69.1848221 L70.5122961,69.1848221 L70.5122961,86.2290206 L82.1566805,86.2290206 L82.1566805,96.1862588 L67.4740134,96.1862588 L67.4740134,15.3475873 Z M88.6804699,86.340235 L94.2624863,86.340235 L94.2624863,79.8803347 L97.3646582,79.8803347 L97.3646582,96.1862588 L85.578298,96.1862588 L85.578298,59.4334488 L97.3646582,59.4334488 L97.3646582,75.6565538 L94.2624863,75.6565538 L94.2624863,69.2794726 L88.6804699,69.2794726 L88.6804699,86.340235 Z" id="形状" fill="#008CD6" fill-rule="nonzero"></path>
    </g>
</svg>